<?xml version="1.0" encoding="UTF-8" standalone="no"?><svg xmlns="http://www.w3.org/2000/svg" xmlns:xlink="http://www.w3.org/1999/xlink" clip-rule="evenodd" stroke-miterlimit="4.00" viewBox="0 0 1024 768"><desc>SVG generated by Keynote</desc><defs></defs><g transform="matrix(1.00, 0.00, -0.00, -1.00, 0.0, 768.0)"><g><clipPath id="clip-116"><path d="M 0.0 768.0 L 1024.0 768.0 L 1024.0 0.0 L 0.0 0.0 Z M 0.0 768.0 "></path></clipPath><g clip-path="url(#clip-116)"><image xlink:href="../../816D42F0-3FFA-4A4A-BF77-3413583BF4C4/assets/A01A756C248906578542D347898470D6.jpeg" width="1024.00" height="768.00" transform="matrix(1.00, 0.00, -0.00, -1.00, 0.0, 768.0)"></image></g></g><text xml:space="preserve" font-family="Baskerville" font-size="58.0" fill="#817463" transform="matrix(1.00, 0.00, -0.00, -1.00, 351.0, 654.0)">A</text><text xml:space="preserve" font-family="Baskerville" font-size="58.0" fill="#817463" transform="matrix(1.00, 0.00, -0.00, -1.00, 390.3, 654.0)">d</text><text xml:space="preserve" font-family="Baskerville" font-size="58.0" fill="#817463" transform="matrix(1.00, 0.00, -0.00, -1.00, 420.5, 654.0)">m</text><text xml:space="preserve" font-family="Baskerville" font-size="58.0" fill="#817463" transform="matrix(1.00, 0.00, -0.00, -1.00, 467.1, 654.0)">i</text><text xml:space="preserve" font-family="Baskerville" font-size="58.0" fill="#817463" transform="matrix(1.00, 0.00, -0.00, -1.00, 481.6, 654.0)">n</text><text xml:space="preserve" font-family="Baskerville" font-size="58.0" fill="#817463" transform="matrix(1.00, 0.00, -0.00, -1.00, 512.4, 654.0)">C</text><text xml:space="preserve" font-family="Baskerville" font-size="58.0" fill="#817463" transform="matrix(1.00, 0.00, -0.00, -1.00, 554.1, 654.0)">e</text><text xml:space="preserve" font-family="Baskerville" font-size="58.0" fill="#817463" transform="matrix(1.00, 0.00, -0.00, -1.00, 579.4, 654.0)">n</text><text xml:space="preserve" font-family="Baskerville" font-size="58.0" fill="#817463" transform="matrix(1.00, 0.00, -0.00, -1.00, 610.2, 654.0)">t</text><text xml:space="preserve" font-family="Baskerville" font-size="58.0" fill="#817463" transform="matrix(1.00, 0.00, -0.00, -1.00, 627.1, 654.0)">e</text><text xml:space="preserve" font-family="Baskerville" font-size="58.0" fill="#817463" transform="matrix(1.00, 0.00, -0.00, -1.00, 652.5, 654.0)">r</text><text xml:space="preserve" font-family="Baskerville" font-size="24.4" fill="#72665A" transform="matrix(1.00, 0.00, -0.00, -1.00, 76.0, 525.0)">•</text><text xml:space="preserve" font-family="Baskerville" font-size="24.4" fill="#72665A" transform="matrix(1.00, 0.00, -0.00, -1.00, 96.0, 526.0)">O</text><text xml:space="preserve" font-family="Baskerville" font-size="24.4" fill="#72665A" transform="matrix(1.00, 0.00, -0.00, -1.00, 116.1, 526.0)">f</text><text xml:space="preserve" font-family="Baskerville" font-size="24.4" fill="#72665A" transform="matrix(1.00, 0.00, -0.00, -1.00, 122.7, 526.0)">ﬂ</text><text xml:space="preserve" font-family="Baskerville" font-size="24.4" fill="#72665A" transform="matrix(1.00, 0.00, -0.00, -1.00, 135.1, 526.0)">i</text><text xml:space="preserve" font-family="Baskerville" font-size="24.4" fill="#72665A" transform="matrix(1.00, 0.00, -0.00, -1.00, 141.2, 526.0)">n</text><text xml:space="preserve" font-family="Baskerville" font-size="24.4" fill="#72665A" transform="matrix(1.00, 0.00, -0.00, -1.00, 154.2, 526.0)">e</text><text xml:space="preserve" font-family="Baskerville" font-size="24.4" fill="#72665A" transform="matrix(1.00, 0.00, -0.00, -1.00, 164.9, 526.0)"> </text><text xml:space="preserve" font-family="Baskerville" font-size="24.4" fill="#72665A" transform="matrix(1.00, 0.00, -0.00, -1.00, 171.0, 526.0)">T</text><text xml:space="preserve" font-family="Baskerville" font-size="24.4" fill="#72665A" transform="matrix(1.00, 0.00, -0.00, -1.00, 185.5, 526.0)">o</text><text xml:space="preserve" font-family="Baskerville" font-size="24.4" fill="#72665A" transform="matrix(1.00, 0.00, -0.00, -1.00, 197.7, 526.0)">o</text><text xml:space="preserve" font-family="Baskerville" font-size="24.4" fill="#72665A" transform="matrix(1.00, 0.00, -0.00, -1.00, 209.9, 526.0)">l</text><text xml:space="preserve" font-family="Baskerville" font-size="24.4" fill="#72665A" transform="matrix(1.00, 0.00, -0.00, -1.00, 215.7, 526.0)">s</text><text xml:space="preserve" font-family="Baskerville" font-size="24.4" fill="#72665A" transform="matrix(1.00, 0.00, -0.00, -1.00, 223.9, 526.0)"> </text><text xml:space="preserve" font-family="Baskerville" font-size="24.4" fill="#72665A" transform="matrix(1.00, 0.00, -0.00, -1.00, 230.0, 526.0)">(</text><text xml:space="preserve" font-family="Baskerville" font-size="24.4" fill="#72665A" transform="matrix(1.00, 0.00, -0.00, -1.00, 235.8, 526.0)">c</text><text xml:space="preserve" font-family="Baskerville" font-size="24.4" fill="#72665A" transform="matrix(1.00, 0.00, -0.00, -1.00, 246.3, 526.0)">u</text><text xml:space="preserve" font-family="Baskerville" font-size="24.4" fill="#72665A" transform="matrix(1.00, 0.00, -0.00, -1.00, 259.0, 526.0)">s</text><text xml:space="preserve" font-family="Baskerville" font-size="24.4" fill="#72665A" transform="matrix(1.00, 0.00, -0.00, -1.00, 267.1, 526.0)">t</text><text xml:space="preserve" font-family="Baskerville" font-size="24.4" fill="#72665A" transform="matrix(1.00, 0.00, -0.00, -1.00, 274.2, 526.0)">o</text><text xml:space="preserve" font-family="Baskerville" font-size="24.4" fill="#72665A" transform="matrix(1.00, 0.00, -0.00, -1.00, 286.4, 526.0)">m</text><text xml:space="preserve" font-family="Baskerville" font-size="24.4" fill="#72665A" transform="matrix(1.00, 0.00, -0.00, -1.00, 306.0, 526.0)">i</text><text xml:space="preserve" font-family="Baskerville" font-size="24.4" fill="#72665A" transform="matrix(1.00, 0.00, -0.00, -1.00, 312.1, 526.0)">z</text><text xml:space="preserve" font-family="Baskerville" font-size="24.4" fill="#72665A" transform="matrix(1.00, 0.00, -0.00, -1.00, 322.3, 526.0)">e</text><text xml:space="preserve" font-family="Baskerville" font-size="24.4" fill="#72665A" transform="matrix(1.00, 0.00, -0.00, -1.00, 333.0, 526.0)">d</text><text xml:space="preserve" font-family="Baskerville" font-size="24.4" fill="#72665A" transform="matrix(1.00, 0.00, -0.00, -1.00, 345.7, 526.0)"> </text><text xml:space="preserve" font-family="Baskerville" font-size="24.4" fill="#72665A" transform="matrix(1.00, 0.00, -0.00, -1.00, 351.8, 526.0)">A</text><text xml:space="preserve" font-family="Baskerville" font-size="24.4" fill="#72665A" transform="matrix(1.00, 0.00, -0.00, -1.00, 368.3, 526.0)">t</text><text xml:space="preserve" font-family="Baskerville" font-size="24.4" fill="#72665A" transform="matrix(1.00, 0.00, -0.00, -1.00, 375.4, 526.0)">o</text><text xml:space="preserve" font-family="Baskerville" font-size="24.4" fill="#72665A" transform="matrix(1.00, 0.00, -0.00, -1.00, 387.6, 526.0)">m</text><text xml:space="preserve" font-family="Baskerville" font-size="24.4" fill="#72665A" transform="matrix(1.00, 0.00, -0.00, -1.00, 407.2, 526.0)">,</text><text xml:space="preserve" font-family="Baskerville" font-size="24.4" fill="#72665A" transform="matrix(1.00, 0.00, -0.00, -1.00, 413.3, 526.0)"> </text><text xml:space="preserve" font-family="Baskerville" font-size="24.4" fill="#72665A" transform="matrix(1.00, 0.00, -0.00, -1.00, 419.4, 526.0)">g</text><text xml:space="preserve" font-family="Baskerville" font-size="24.4" fill="#72665A" transform="matrix(1.00, 0.00, -0.00, -1.00, 430.8, 526.0)">i</text><text xml:space="preserve" font-family="Baskerville" font-size="24.4" fill="#72665A" transform="matrix(1.00, 0.00, -0.00, -1.00, 436.9, 526.0)">t</text><text xml:space="preserve" font-family="Baskerville" font-size="24.4" fill="#72665A" transform="matrix(1.00, 0.00, -0.00, -1.00, 444.0, 526.0)">)</text><text xml:space="preserve" font-family="Baskerville" font-size="24.4" fill="#72665A" transform="matrix(1.00, 0.00, -0.00, -1.00, 449.9, 526.0)"> </text><text xml:space="preserve" font-family="Baskerville" font-size="24.4" fill="#72665A" transform="matrix(1.00, 0.00, -0.00, -1.00, 109.0, 473.8)">•</text><text xml:space="preserve" font-family="Baskerville" font-size="24.4" fill="#72665A" transform="matrix(1.00, 0.00, -0.00, -1.00, 129.0, 475.0)">L</text><text xml:space="preserve" font-family="Baskerville" font-size="24.4" fill="#72665A" transform="matrix(1.00, 0.00, -0.00, -1.00, 143.7, 475.0)">o</text><text xml:space="preserve" font-family="Baskerville" font-size="24.4" fill="#72665A" transform="matrix(1.00, 0.00, -0.00, -1.00, 155.9, 475.0)">c</text><text xml:space="preserve" font-family="Baskerville" font-size="24.4" fill="#72665A" transform="matrix(1.00, 0.00, -0.00, -1.00, 166.4, 475.0)">a</text><text xml:space="preserve" font-family="Baskerville" font-size="24.4" fill="#72665A" transform="matrix(1.00, 0.00, -0.00, -1.00, 177.8, 475.0)">l</text><text xml:space="preserve" font-family="Baskerville" font-size="24.4" fill="#72665A" transform="matrix(1.00, 0.00, -0.00, -1.00, 183.6, 475.0)"> </text><text xml:space="preserve" font-family="Baskerville" font-size="24.4" fill="#72665A" transform="matrix(1.00, 0.00, -0.00, -1.00, 189.7, 475.0)">P</text><text xml:space="preserve" font-family="Baskerville" font-size="24.4" fill="#72665A" transform="matrix(1.00, 0.00, -0.00, -1.00, 203.5, 475.0)">r</text><text xml:space="preserve" font-family="Baskerville" font-size="24.4" fill="#72665A" transform="matrix(1.00, 0.00, -0.00, -1.00, 212.1, 475.0)">e</text><text xml:space="preserve" font-family="Baskerville" font-size="24.4" fill="#72665A" transform="matrix(1.00, 0.00, -0.00, -1.00, 222.5, 475.0)">v</text><text xml:space="preserve" font-family="Baskerville" font-size="24.4" fill="#72665A" transform="matrix(1.00, 0.00, -0.00, -1.00, 233.7, 475.0)">i</text><text xml:space="preserve" font-family="Baskerville" font-size="24.4" fill="#72665A" transform="matrix(1.00, 0.00, -0.00, -1.00, 239.8, 475.0)">e</text><text xml:space="preserve" font-family="Baskerville" font-size="24.4" fill="#72665A" transform="matrix(1.00, 0.00, -0.00, -1.00, 250.5, 475.0)">w</text><text xml:space="preserve" font-family="Baskerville" font-size="24.4" fill="#72665A" transform="matrix(1.00, 0.00, -0.00, -1.00, 264.1, 475.0)">,</text><text xml:space="preserve" font-family="Baskerville" font-size="24.4" fill="#72665A" transform="matrix(1.00, 0.00, -0.00, -1.00, 270.2, 475.0)"> </text><text xml:space="preserve" font-family="Baskerville" font-size="24.4" fill="#72665A" transform="matrix(1.00, 0.00, -0.00, -1.00, 276.3, 475.0)">s</text><text xml:space="preserve" font-family="Baskerville" font-size="24.4" fill="#72665A" transform="matrix(1.00, 0.00, -0.00, -1.00, 284.4, 475.0)">i</text><text xml:space="preserve" font-family="Baskerville" font-size="24.4" fill="#72665A" transform="matrix(1.00, 0.00, -0.00, -1.00, 290.5, 475.0)">m</text><text xml:space="preserve" font-family="Baskerville" font-size="24.4" fill="#72665A" transform="matrix(1.00, 0.00, -0.00, -1.00, 310.1, 475.0)">p</text><text xml:space="preserve" font-family="Baskerville" font-size="24.4" fill="#72665A" transform="matrix(1.00, 0.00, -0.00, -1.00, 322.8, 475.0)">l</text><text xml:space="preserve" font-family="Baskerville" font-size="24.4" fill="#72665A" transform="matrix(1.00, 0.00, -0.00, -1.00, 328.7, 475.0)">e</text><text xml:space="preserve" font-family="Baskerville" font-size="24.4" fill="#72665A" transform="matrix(1.00, 0.00, -0.00, -1.00, 339.3, 475.0)"> </text><text xml:space="preserve" font-family="Baskerville" font-size="24.4" fill="#72665A" transform="matrix(1.00, 0.00, -0.00, -1.00, 345.4, 475.0)">p</text><text xml:space="preserve" font-family="Baskerville" font-size="24.4" fill="#72665A" transform="matrix(1.00, 0.00, -0.00, -1.00, 358.1, 475.0)">u</text><text xml:space="preserve" font-family="Baskerville" font-size="24.4" fill="#72665A" transform="matrix(1.00, 0.00, -0.00, -1.00, 370.8, 475.0)">b</text><text xml:space="preserve" font-family="Baskerville" font-size="24.4" fill="#72665A" transform="matrix(1.00, 0.00, -0.00, -1.00, 383.3, 475.0)">l</text><text xml:space="preserve" font-family="Baskerville" font-size="24.4" fill="#72665A" transform="matrix(1.00, 0.00, -0.00, -1.00, 389.2, 475.0)">i</text><text xml:space="preserve" font-family="Baskerville" font-size="24.4" fill="#72665A" transform="matrix(1.00, 0.00, -0.00, -1.00, 395.3, 475.0)">s</text><text xml:space="preserve" font-family="Baskerville" font-size="24.4" fill="#72665A" transform="matrix(1.00, 0.00, -0.00, -1.00, 403.4, 475.0)">h</text><text xml:space="preserve" font-family="Baskerville" font-size="24.4" fill="#72665A" transform="matrix(1.00, 0.00, -0.00, -1.00, 416.4, 475.0)">,</text><text xml:space="preserve" font-family="Baskerville" font-size="24.4" fill="#72665A" transform="matrix(1.00, 0.00, -0.00, -1.00, 422.5, 475.0)"> </text><text xml:space="preserve" font-family="Baskerville" font-size="24.4" fill="#72665A" transform="matrix(1.00, 0.00, -0.00, -1.00, 428.6, 475.0)"> </text><text xml:space="preserve" font-family="Baskerville" font-size="24.4" fill="#72665A" transform="matrix(1.00, 0.00, -0.00, -1.00, 434.7, 475.0)"> </text><text xml:space="preserve" font-family="Baskerville" font-size="24.4" fill="#72665A" transform="matrix(1.00, 0.00, -0.00, -1.00, 109.0, 422.6)">•</text><text xml:space="preserve" font-family="Baskerville" font-size="24.4" fill="#72665A" transform="matrix(1.00, 0.00, -0.00, -1.00, 129.0, 424.0)">W</text><text xml:space="preserve" font-family="Baskerville" font-size="24.4" fill="#72665A" transform="matrix(1.00, 0.00, -0.00, -1.00, 150.1, 424.0)">e</text><text xml:space="preserve" font-family="Baskerville" font-size="24.4" fill="#72665A" transform="matrix(1.00, 0.00, -0.00, -1.00, 160.7, 424.0)">b</text><text xml:space="preserve" font-family="Baskerville" font-size="24.4" fill="#72665A" transform="matrix(1.00, 0.00, -0.00, -1.00, 173.4, 424.0)"> </text><text xml:space="preserve" font-family="Baskerville" font-size="24.4" fill="#72665A" transform="matrix(1.00, 0.00, -0.00, -1.00, 179.5, 424.0)">C</text><text xml:space="preserve" font-family="Baskerville" font-size="24.4" fill="#72665A" transform="matrix(1.00, 0.00, -0.00, -1.00, 197.1, 424.0)">o</text><text xml:space="preserve" font-family="Baskerville" font-size="24.4" fill="#72665A" transform="matrix(1.00, 0.00, -0.00, -1.00, 209.3, 424.0)">n</text><text xml:space="preserve" font-family="Baskerville" font-size="24.4" fill="#72665A" transform="matrix(1.00, 0.00, -0.00, -1.00, 222.2, 424.0)">t</text><text xml:space="preserve" font-family="Baskerville" font-size="24.4" fill="#72665A" transform="matrix(1.00, 0.00, -0.00, -1.00, 229.3, 424.0)">e</text><text xml:space="preserve" font-family="Baskerville" font-size="24.4" fill="#72665A" transform="matrix(1.00, 0.00, -0.00, -1.00, 240.0, 424.0)">n</text><text xml:space="preserve" font-family="Baskerville" font-size="24.4" fill="#72665A" transform="matrix(1.00, 0.00, -0.00, -1.00, 253.0, 424.0)">t</text><text xml:space="preserve" font-family="Baskerville" font-size="24.4" fill="#72665A" transform="matrix(1.00, 0.00, -0.00, -1.00, 260.1, 424.0)">:</text><text xml:space="preserve" font-family="Baskerville" font-size="24.4" fill="#72665A" transform="matrix(1.00, 0.00, -0.00, -1.00, 266.2, 424.0)"> </text><text xml:space="preserve" font-family="Baskerville" font-size="24.4" fill="#72665A" transform="matrix(1.00, 0.00, -0.00, -1.00, 272.3, 424.0)">s</text><text xml:space="preserve" font-family="Baskerville" font-size="24.4" fill="#72665A" transform="matrix(1.00, 0.00, -0.00, -1.00, 280.4, 424.0)">ả</text><text xml:space="preserve" font-family="Baskerville" font-size="24.4" fill="#72665A" transform="matrix(1.00, 0.00, -0.00, -1.00, 291.9, 424.0)">n</text><text xml:space="preserve" font-family="Baskerville" font-size="24.4" fill="#72665A" transform="matrix(1.00, 0.00, -0.00, -1.00, 304.8, 424.0)"> </text><text xml:space="preserve" font-family="Baskerville" font-size="24.4" fill="#72665A" transform="matrix(1.00, 0.00, -0.00, -1.00, 310.9, 424.0)">p</text><text xml:space="preserve" font-family="Baskerville" font-size="24.4" fill="#72665A" transform="matrix(1.00, 0.00, -0.00, -1.00, 323.6, 424.0)">h</text><text xml:space="preserve" font-family="Baskerville" font-size="24.4" fill="#72665A" transform="matrix(1.00, 0.00, -0.00, -1.00, 336.6, 424.0)">ẩ</text><text xml:space="preserve" font-family="Baskerville" font-size="24.4" fill="#72665A" transform="matrix(1.00, 0.00, -0.00, -1.00, 348.0, 424.0)">m</text><text xml:space="preserve" font-family="Baskerville" font-size="24.4" fill="#72665A" transform="matrix(1.00, 0.00, -0.00, -1.00, 367.6, 424.0)">,</text><text xml:space="preserve" font-family="Baskerville" font-size="24.4" fill="#72665A" transform="matrix(1.00, 0.00, -0.00, -1.00, 373.7, 424.0)"> </text><text xml:space="preserve" font-family="Baskerville" font-size="24.4" fill="#72665A" transform="matrix(1.00, 0.00, -0.00, -1.00, 379.8, 424.0)">b</text><text xml:space="preserve" font-family="Baskerville" font-size="24.4" fill="#72665A" transform="matrix(1.00, 0.00, -0.00, -1.00, 392.5, 424.0)">à</text><text xml:space="preserve" font-family="Baskerville" font-size="24.4" fill="#72665A" transform="matrix(1.00, 0.00, -0.00, -1.00, 404.0, 424.0)">i</text><text xml:space="preserve" font-family="Baskerville" font-size="24.4" fill="#72665A" transform="matrix(1.00, 0.00, -0.00, -1.00, 410.1, 424.0)"> </text><text xml:space="preserve" font-family="Baskerville" font-size="24.4" fill="#72665A" transform="matrix(1.00, 0.00, -0.00, -1.00, 416.2, 424.0)">v</text><text xml:space="preserve" font-family="Baskerville" font-size="24.4" fill="#72665A" transform="matrix(1.00, 0.00, -0.00, -1.00, 427.4, 424.0)">i</text><text xml:space="preserve" font-family="Baskerville" font-size="24.4" fill="#72665A" transform="matrix(1.00, 0.00, -0.00, -1.00, 433.5, 424.0)">ế</text><text xml:space="preserve" font-family="Baskerville" font-size="24.4" fill="#72665A" transform="matrix(1.00, 0.00, -0.00, -1.00, 444.1, 424.0)">t</text><text xml:space="preserve" font-family="Baskerville" font-size="24.4" fill="#72665A" transform="matrix(1.00, 0.00, -0.00, -1.00, 451.2, 424.0)"> </text><text xml:space="preserve" font-family="Baskerville" font-size="24.4" fill="#72665A" transform="matrix(1.00, 0.00, -0.00, -1.00, 457.3, 424.0)">(</text><text xml:space="preserve" font-family="Baskerville" font-size="24.4" fill="#72665A" transform="matrix(1.00, 0.00, -0.00, -1.00, 463.2, 424.0)">*</text><text xml:space="preserve" font-family="Baskerville" font-size="24.4" fill="#72665A" transform="matrix(1.00, 0.00, -0.00, -1.00, 473.3, 424.0)">.</text><text xml:space="preserve" font-family="Baskerville" font-size="24.4" fill="#72665A" transform="matrix(1.00, 0.00, -0.00, -1.00, 479.4, 424.0)">m</text><text xml:space="preserve" font-family="Baskerville" font-size="24.4" fill="#72665A" transform="matrix(1.00, 0.00, -0.00, -1.00, 499.0, 424.0)">d</text><text xml:space="preserve" font-family="Baskerville" font-size="24.4" fill="#72665A" transform="matrix(1.00, 0.00, -0.00, -1.00, 511.7, 424.0)">)</text><text xml:space="preserve" font-family="Baskerville" font-size="24.4" fill="#72665A" transform="matrix(1.00, 0.00, -0.00, -1.00, 517.6, 424.0)"> </text><text xml:space="preserve" font-family="Baskerville" font-size="24.4" fill="#72665A" transform="matrix(1.00, 0.00, -0.00, -1.00, 109.0, 371.5)">•</text><text xml:space="preserve" font-family="Baskerville" font-size="24.4" fill="#72665A" transform="matrix(1.00, 0.00, -0.00, -1.00, 129.0, 372.0)">W</text><text xml:space="preserve" font-family="Baskerville" font-size="24.4" fill="#72665A" transform="matrix(1.00, 0.00, -0.00, -1.00, 150.1, 372.0)">e</text><text xml:space="preserve" font-family="Baskerville" font-size="24.4" fill="#72665A" transform="matrix(1.00, 0.00, -0.00, -1.00, 160.7, 372.0)">b</text><text xml:space="preserve" font-family="Baskerville" font-size="24.4" fill="#72665A" transform="matrix(1.00, 0.00, -0.00, -1.00, 173.4, 372.0)"> </text><text xml:space="preserve" font-family="Baskerville" font-size="24.4" fill="#72665A" transform="matrix(1.00, 0.00, -0.00, -1.00, 179.5, 372.0)">F</text><text xml:space="preserve" font-family="Baskerville" font-size="24.4" fill="#72665A" transform="matrix(1.00, 0.00, -0.00, -1.00, 191.7, 372.0)">r</text><text xml:space="preserve" font-family="Baskerville" font-size="24.4" fill="#72665A" transform="matrix(1.00, 0.00, -0.00, -1.00, 200.1, 372.0)">o</text><text xml:space="preserve" font-family="Baskerville" font-size="24.4" fill="#72665A" transform="matrix(1.00, 0.00, -0.00, -1.00, 212.3, 372.0)">n</text><text xml:space="preserve" font-family="Baskerville" font-size="24.4" fill="#72665A" transform="matrix(1.00, 0.00, -0.00, -1.00, 225.3, 372.0)">t</text><text xml:space="preserve" font-family="Baskerville" font-size="24.4" fill="#72665A" transform="matrix(1.00, 0.00, -0.00, -1.00, 232.4, 372.0)">-</text><text xml:space="preserve" font-family="Baskerville" font-size="24.4" fill="#72665A" transform="matrix(1.00, 0.00, -0.00, -1.00, 240.0, 372.0)">e</text><text xml:space="preserve" font-family="Baskerville" font-size="24.4" fill="#72665A" transform="matrix(1.00, 0.00, -0.00, -1.00, 250.6, 372.0)">n</text><text xml:space="preserve" font-family="Baskerville" font-size="24.4" fill="#72665A" transform="matrix(1.00, 0.00, -0.00, -1.00, 263.6, 372.0)">d</text><text xml:space="preserve" font-family="Baskerville" font-size="24.4" fill="#72665A" transform="matrix(1.00, 0.00, -0.00, -1.00, 276.3, 372.0)"> </text><text xml:space="preserve" font-family="Baskerville" font-size="24.4" fill="#72665A" transform="matrix(1.00, 0.00, -0.00, -1.00, 282.4, 372.0)">D</text><text xml:space="preserve" font-family="Baskerville" font-size="24.4" fill="#72665A" transform="matrix(1.00, 0.00, -0.00, -1.00, 301.0, 372.0)">e</text><text xml:space="preserve" font-family="Baskerville" font-size="24.4" fill="#72665A" transform="matrix(1.00, 0.00, -0.00, -1.00, 311.4, 372.0)">v</text><text xml:space="preserve" font-family="Baskerville" font-size="24.4" fill="#72665A" transform="matrix(1.00, 0.00, -0.00, -1.00, 322.1, 372.0)">e</text><text xml:space="preserve" font-family="Baskerville" font-size="24.4" fill="#72665A" transform="matrix(1.00, 0.00, -0.00, -1.00, 332.8, 372.0)">l</text><text xml:space="preserve" font-family="Baskerville" font-size="24.4" fill="#72665A" transform="matrix(1.00, 0.00, -0.00, -1.00, 338.6, 372.0)">o</text><text xml:space="preserve" font-family="Baskerville" font-size="24.4" fill="#72665A" transform="matrix(1.00, 0.00, -0.00, -1.00, 350.8, 372.0)">p</text><text xml:space="preserve" font-family="Baskerville" font-size="24.4" fill="#72665A" transform="matrix(1.00, 0.00, -0.00, -1.00, 363.5, 372.0)">e</text><text xml:space="preserve" font-family="Baskerville" font-size="24.4" fill="#72665A" transform="matrix(1.00, 0.00, -0.00, -1.00, 374.2, 372.0)">r</text><text xml:space="preserve" font-family="Baskerville" font-size="24.4" fill="#72665A" transform="matrix(1.00, 0.00, -0.00, -1.00, 383.1, 372.0)"> </text><text xml:space="preserve" font-family="Baskerville" font-size="24.4" fill="#72665A" transform="matrix(1.00, 0.00, -0.00, -1.00, 389.2, 372.0)">(</text><text xml:space="preserve" font-family="Baskerville" font-size="24.4" fill="#72665A" transform="matrix(1.00, 0.00, -0.00, -1.00, 395.0, 372.0)">f</text><text xml:space="preserve" font-family="Baskerville" font-size="24.4" fill="#72665A" transform="matrix(1.00, 0.00, -0.00, -1.00, 401.7, 372.0)">u</text><text xml:space="preserve" font-family="Baskerville" font-size="24.4" fill="#72665A" transform="matrix(1.00, 0.00, -0.00, -1.00, 414.4, 372.0)">l</text><text xml:space="preserve" font-family="Baskerville" font-size="24.4" fill="#72665A" transform="matrix(1.00, 0.00, -0.00, -1.00, 420.2, 372.0)">l</text><text xml:space="preserve" font-family="Baskerville" font-size="24.4" fill="#72665A" transform="matrix(1.00, 0.00, -0.00, -1.00, 426.1, 372.0)"> </text><text xml:space="preserve" font-family="Baskerville" font-size="24.4" fill="#72665A" transform="matrix(1.00, 0.00, -0.00, -1.00, 432.2, 372.0)">d</text><text xml:space="preserve" font-family="Baskerville" font-size="24.4" fill="#72665A" transform="matrix(1.00, 0.00, -0.00, -1.00, 444.9, 372.0)">o</text><text xml:space="preserve" font-family="Baskerville" font-size="24.4" fill="#72665A" transform="matrix(1.00, 0.00, -0.00, -1.00, 457.1, 372.0)">c</text><text xml:space="preserve" font-family="Baskerville" font-size="24.4" fill="#72665A" transform="matrix(1.00, 0.00, -0.00, -1.00, 467.5, 372.0)">p</text><text xml:space="preserve" font-family="Baskerville" font-size="24.4" fill="#72665A" transform="matrix(1.00, 0.00, -0.00, -1.00, 480.2, 372.0)">a</text><text xml:space="preserve" font-family="Baskerville" font-size="24.4" fill="#72665A" transform="matrix(1.00, 0.00, -0.00, -1.00, 491.6, 372.0)">d</text><text xml:space="preserve" font-family="Baskerville" font-size="24.4" fill="#72665A" transform="matrix(1.00, 0.00, -0.00, -1.00, 504.3, 372.0)"> </text><text xml:space="preserve" font-family="Baskerville" font-size="24.4" fill="#72665A" transform="matrix(1.00, 0.00, -0.00, -1.00, 510.4, 372.0)">s</text><text xml:space="preserve" font-family="Baskerville" font-size="24.4" fill="#72665A" transform="matrix(1.00, 0.00, -0.00, -1.00, 518.6, 372.0)">o</text><text xml:space="preserve" font-family="Baskerville" font-size="24.4" fill="#72665A" transform="matrix(1.00, 0.00, -0.00, -1.00, 530.8, 372.0)">u</text><text xml:space="preserve" font-family="Baskerville" font-size="24.4" fill="#72665A" transform="matrix(1.00, 0.00, -0.00, -1.00, 543.5, 372.0)">r</text><text xml:space="preserve" font-family="Baskerville" font-size="24.4" fill="#72665A" transform="matrix(1.00, 0.00, -0.00, -1.00, 551.9, 372.0)">c</text><text xml:space="preserve" font-family="Baskerville" font-size="24.4" fill="#72665A" transform="matrix(1.00, 0.00, -0.00, -1.00, 562.4, 372.0)">e</text><text xml:space="preserve" font-family="Baskerville" font-size="24.4" fill="#72665A" transform="matrix(1.00, 0.00, -0.00, -1.00, 573.0, 372.0)">)</text><text xml:space="preserve" font-family="Baskerville" font-size="24.4" fill="#72665A" transform="matrix(1.00, 0.00, -0.00, -1.00, 578.9, 372.0)"> </text><text xml:space="preserve" font-family="Baskerville" font-size="24.4" fill="#72665A" transform="matrix(1.00, 0.00, -0.00, -1.00, 76.0, 320.3)">•</text><text xml:space="preserve" font-family="Baskerville" font-size="24.4" fill="#72665A" transform="matrix(1.00, 0.00, -0.00, -1.00, 96.0, 321.0)">O</text><text xml:space="preserve" font-family="Baskerville" font-size="24.4" fill="#72665A" transform="matrix(1.00, 0.00, -0.00, -1.00, 116.1, 321.0)">n</text><text xml:space="preserve" font-family="Baskerville" font-size="24.4" fill="#72665A" transform="matrix(1.00, 0.00, -0.00, -1.00, 129.0, 321.0)">l</text><text xml:space="preserve" font-family="Baskerville" font-size="24.4" fill="#72665A" transform="matrix(1.00, 0.00, -0.00, -1.00, 134.9, 321.0)">i</text><text xml:space="preserve" font-family="Baskerville" font-size="24.4" fill="#72665A" transform="matrix(1.00, 0.00, -0.00, -1.00, 141.0, 321.0)">n</text><text xml:space="preserve" font-family="Baskerville" font-size="24.4" fill="#72665A" transform="matrix(1.00, 0.00, -0.00, -1.00, 154.0, 321.0)">e</text><text xml:space="preserve" font-family="Baskerville" font-size="24.4" fill="#72665A" transform="matrix(1.00, 0.00, -0.00, -1.00, 164.6, 321.0)"> </text><text xml:space="preserve" font-family="Baskerville" font-size="24.4" fill="#72665A" transform="matrix(1.00, 0.00, -0.00, -1.00, 170.7, 321.0)">S</text><text xml:space="preserve" font-family="Baskerville" font-size="24.4" fill="#72665A" transform="matrix(1.00, 0.00, -0.00, -1.00, 183.9, 321.0)">e</text><text xml:space="preserve" font-family="Baskerville" font-size="24.4" fill="#72665A" transform="matrix(1.00, 0.00, -0.00, -1.00, 194.6, 321.0)">r</text><text xml:space="preserve" font-family="Baskerville" font-size="24.4" fill="#72665A" transform="matrix(1.00, 0.00, -0.00, -1.00, 203.5, 321.0)">v</text><text xml:space="preserve" font-family="Baskerville" font-size="24.4" fill="#72665A" transform="matrix(1.00, 0.00, -0.00, -1.00, 214.7, 321.0)">i</text><text xml:space="preserve" font-family="Baskerville" font-size="24.4" fill="#72665A" transform="matrix(1.00, 0.00, -0.00, -1.00, 220.8, 321.0)">c</text><text xml:space="preserve" font-family="Baskerville" font-size="24.4" fill="#72665A" transform="matrix(1.00, 0.00, -0.00, -1.00, 231.2, 321.0)">e</text><text xml:space="preserve" font-family="Baskerville" font-size="24.4" fill="#72665A" transform="matrix(1.00, 0.00, -0.00, -1.00, 241.9, 321.0)">s</text><text xml:space="preserve" font-family="Baskerville" font-size="24.4" fill="#72665A" transform="matrix(1.00, 0.00, -0.00, -1.00, 250.0, 321.0)"> </text><text xml:space="preserve" font-family="Baskerville" font-size="24.4" fill="#72665A" transform="matrix(1.00, 0.00, -0.00, -1.00, 109.0, 269.1)">•</text><text xml:space="preserve" font-family="Baskerville" font-size="24.4" fill="#72665A" transform="matrix(1.00, 0.00, -0.00, -1.00, 129.0, 270.0)">Q</text><text xml:space="preserve" font-family="Baskerville" font-size="24.4" fill="#72665A" transform="matrix(1.00, 0.00, -0.00, -1.00, 149.1, 270.0)">u</text><text xml:space="preserve" font-family="Baskerville" font-size="24.4" fill="#72665A" transform="matrix(1.00, 0.00, -0.00, -1.00, 161.8, 270.0)">ả</text><text xml:space="preserve" font-family="Baskerville" font-size="24.4" fill="#72665A" transform="matrix(1.00, 0.00, -0.00, -1.00, 173.2, 270.0)">n</text><text xml:space="preserve" font-family="Baskerville" font-size="24.4" fill="#72665A" transform="matrix(1.00, 0.00, -0.00, -1.00, 186.2, 270.0)"> </text><text xml:space="preserve" font-family="Baskerville" font-size="24.4" fill="#72665A" transform="matrix(1.00, 0.00, -0.00, -1.00, 192.3, 270.0)">t</text><text xml:space="preserve" font-family="Baskerville" font-size="24.4" fill="#72665A" transform="matrix(1.00, 0.00, -0.00, -1.00, 199.4, 270.0)">r</text><text xml:space="preserve" font-family="Baskerville" font-size="24.4" fill="#72665A" transform="matrix(1.00, 0.00, -0.00, -1.00, 208.3, 270.0)">ị</text><text xml:space="preserve" font-family="Baskerville" font-size="24.4" fill="#72665A" transform="matrix(1.00, 0.00, -0.00, -1.00, 214.4, 270.0)"> </text><text xml:space="preserve" font-family="Baskerville" font-size="24.4" fill="#72665A" transform="matrix(1.00, 0.00, -0.00, -1.00, 220.5, 270.0)">w</text><text xml:space="preserve" font-family="Baskerville" font-size="24.4" fill="#72665A" transform="matrix(1.00, 0.00, -0.00, -1.00, 236.8, 270.0)">e</text><text xml:space="preserve" font-family="Baskerville" font-size="24.4" fill="#72665A" transform="matrix(1.00, 0.00, -0.00, -1.00, 247.4, 270.0)">b</text><text xml:space="preserve" font-family="Baskerville" font-size="24.4" fill="#72665A" transform="matrix(1.00, 0.00, -0.00, -1.00, 260.1, 270.0)">s</text><text xml:space="preserve" font-family="Baskerville" font-size="24.4" fill="#72665A" transform="matrix(1.00, 0.00, -0.00, -1.00, 268.3, 270.0)">i</text><text xml:space="preserve" font-family="Baskerville" font-size="24.4" fill="#72665A" transform="matrix(1.00, 0.00, -0.00, -1.00, 274.4, 270.0)">t</text><text xml:space="preserve" font-family="Baskerville" font-size="24.4" fill="#72665A" transform="matrix(1.00, 0.00, -0.00, -1.00, 281.5, 270.0)">e</text><text xml:space="preserve" font-family="Baskerville" font-size="24.4" fill="#72665A" transform="matrix(1.00, 0.00, -0.00, -1.00, 292.2, 270.0)"> </text><text xml:space="preserve" font-family="Baskerville" font-size="24.4" fill="#72665A" transform="matrix(1.00, 0.00, -0.00, -1.00, 298.3, 270.0)">đ</text><text xml:space="preserve" font-family="Baskerville" font-size="24.4" fill="#72665A" transform="matrix(1.00, 0.00, -0.00, -1.00, 311.0, 270.0)">ơ</text><text xml:space="preserve" font-family="Baskerville" font-size="24.4" fill="#72665A" transform="matrix(1.00, 0.00, -0.00, -1.00, 324.9, 270.0)">n</text><text xml:space="preserve" font-family="Baskerville" font-size="24.4" fill="#72665A" transform="matrix(1.00, 0.00, -0.00, -1.00, 337.9, 270.0)"> </text><text xml:space="preserve" font-family="Baskerville" font-size="24.4" fill="#72665A" transform="matrix(1.00, 0.00, -0.00, -1.00, 344.0, 270.0)">g</text><text xml:space="preserve" font-family="Baskerville" font-size="24.4" fill="#72665A" transform="matrix(1.00, 0.00, -0.00, -1.00, 355.4, 270.0)">i</text><text xml:space="preserve" font-family="Baskerville" font-size="24.4" fill="#72665A" transform="matrix(1.00, 0.00, -0.00, -1.00, 361.5, 270.0)">ả</text><text xml:space="preserve" font-family="Baskerville" font-size="24.4" fill="#72665A" transform="matrix(1.00, 0.00, -0.00, -1.00, 372.9, 270.0)">n</text><text xml:space="preserve" font-family="Baskerville" font-size="24.4" fill="#72665A" transform="matrix(1.00, 0.00, -0.00, -1.00, 385.9, 270.0)"> </text><text xml:space="preserve" font-family="Baskerville" font-size="24.4" fill="#72665A" transform="matrix(1.00, 0.00, -0.00, -1.00, 109.0, 217.9)">•</text><text xml:space="preserve" font-family="Baskerville" font-size="24.4" fill="#72665A" transform="matrix(1.00, 0.00, -0.00, -1.00, 129.0, 219.0)">T</text><text xml:space="preserve" font-family="Baskerville" font-size="24.4" fill="#72665A" transform="matrix(1.00, 0.00, -0.00, -1.00, 146.3, 219.0)">h</text><text xml:space="preserve" font-family="Baskerville" font-size="24.4" fill="#72665A" transform="matrix(1.00, 0.00, -0.00, -1.00, 159.2, 219.0)">ố</text><text xml:space="preserve" font-family="Baskerville" font-size="24.4" fill="#72665A" transform="matrix(1.00, 0.00, -0.00, -1.00, 171.4, 219.0)">n</text><text xml:space="preserve" font-family="Baskerville" font-size="24.4" fill="#72665A" transform="matrix(1.00, 0.00, -0.00, -1.00, 184.4, 219.0)">g</text><text xml:space="preserve" font-family="Baskerville" font-size="24.4" fill="#72665A" transform="matrix(1.00, 0.00, -0.00, -1.00, 195.8, 219.0)"> </text><text xml:space="preserve" font-family="Baskerville" font-size="24.4" fill="#72665A" transform="matrix(1.00, 0.00, -0.00, -1.00, 201.9, 219.0)">k</text><text xml:space="preserve" font-family="Baskerville" font-size="24.4" fill="#72665A" transform="matrix(1.00, 0.00, -0.00, -1.00, 213.1, 219.0)">ê</text><text xml:space="preserve" font-family="Baskerville" font-size="24.4" fill="#72665A" transform="matrix(1.00, 0.00, -0.00, -1.00, 223.8, 219.0)">,</text><text xml:space="preserve" font-family="Baskerville" font-size="24.4" fill="#72665A" transform="matrix(1.00, 0.00, -0.00, -1.00, 229.9, 219.0)"> </text><text xml:space="preserve" font-family="Baskerville" font-size="24.4" fill="#72665A" transform="matrix(1.00, 0.00, -0.00, -1.00, 236.0, 219.0)">r</text><text xml:space="preserve" font-family="Baskerville" font-size="24.4" fill="#72665A" transform="matrix(1.00, 0.00, -0.00, -1.00, 244.6, 219.0)">e</text><text xml:space="preserve" font-family="Baskerville" font-size="24.4" fill="#72665A" transform="matrix(1.00, 0.00, -0.00, -1.00, 255.5, 219.0)">p</text><text xml:space="preserve" font-family="Baskerville" font-size="24.4" fill="#72665A" transform="matrix(1.00, 0.00, -0.00, -1.00, 268.3, 219.0)">o</text><text xml:space="preserve" font-family="Baskerville" font-size="24.4" fill="#72665A" transform="matrix(1.00, 0.00, -0.00, -1.00, 280.5, 219.0)">r</text><text xml:space="preserve" font-family="Baskerville" font-size="24.4" fill="#72665A" transform="matrix(1.00, 0.00, -0.00, -1.00, 289.4, 219.0)">t</text><text xml:space="preserve" font-family="Baskerville" font-size="24.4" fill="#72665A" transform="matrix(1.00, 0.00, -0.00, -1.00, 296.5, 219.0)"> </text><text xml:space="preserve" font-family="Baskerville" font-size="24.4" fill="#72665A" transform="matrix(1.00, 0.00, -0.00, -1.00, 109.0, 166.7)">•</text><text xml:space="preserve" font-family="Baskerville" font-size="24.4" fill="#72665A" transform="matrix(1.00, 0.00, -0.00, -1.00, 129.0, 168.0)">T</text><text xml:space="preserve" font-family="Baskerville" font-size="24.4" fill="#72665A" transform="matrix(1.00, 0.00, -0.00, -1.00, 146.0, 168.0)">í</text><text xml:space="preserve" font-family="Baskerville" font-size="24.4" fill="#72665A" transform="matrix(1.00, 0.00, -0.00, -1.00, 152.1, 168.0)">n</text><text xml:space="preserve" font-family="Baskerville" font-size="24.4" fill="#72665A" transform="matrix(1.00, 0.00, -0.00, -1.00, 165.1, 168.0)">h</text><text xml:space="preserve" font-family="Baskerville" font-size="24.4" fill="#72665A" transform="matrix(1.00, 0.00, -0.00, -1.00, 178.1, 168.0)"> </text><text xml:space="preserve" font-family="Baskerville" font-size="24.4" fill="#72665A" transform="matrix(1.00, 0.00, -0.00, -1.00, 184.2, 168.0)">n</text><text xml:space="preserve" font-family="Baskerville" font-size="24.4" fill="#72665A" transform="matrix(1.00, 0.00, -0.00, -1.00, 197.1, 168.0)">ă</text><text xml:space="preserve" font-family="Baskerville" font-size="24.4" fill="#72665A" transform="matrix(1.00, 0.00, -0.00, -1.00, 208.6, 168.0)">n</text><text xml:space="preserve" font-family="Baskerville" font-size="24.4" fill="#72665A" transform="matrix(1.00, 0.00, -0.00, -1.00, 221.5, 168.0)">g</text><text xml:space="preserve" font-family="Baskerville" font-size="24.4" fill="#72665A" transform="matrix(1.00, 0.00, -0.00, -1.00, 233.0, 168.0)"> </text><text xml:space="preserve" font-family="Baskerville" font-size="24.4" fill="#72665A" transform="matrix(1.00, 0.00, -0.00, -1.00, 239.1, 168.0)">n</text><text xml:space="preserve" font-family="Baskerville" font-size="24.4" fill="#72665A" transform="matrix(1.00, 0.00, -0.00, -1.00, 252.0, 168.0)">â</text><text xml:space="preserve" font-family="Baskerville" font-size="24.4" fill="#72665A" transform="matrix(1.00, 0.00, -0.00, -1.00, 263.5, 168.0)">n</text><text xml:space="preserve" font-family="Baskerville" font-size="24.4" fill="#72665A" transform="matrix(1.00, 0.00, -0.00, -1.00, 276.4, 168.0)">g</text><text xml:space="preserve" font-family="Baskerville" font-size="24.4" fill="#72665A" transform="matrix(1.00, 0.00, -0.00, -1.00, 287.9, 168.0)"> </text><text xml:space="preserve" font-family="Baskerville" font-size="24.4" fill="#72665A" transform="matrix(1.00, 0.00, -0.00, -1.00, 294.0, 168.0)">c</text><text xml:space="preserve" font-family="Baskerville" font-size="24.4" fill="#72665A" transform="matrix(1.00, 0.00, -0.00, -1.00, 304.4, 168.0)">a</text><text xml:space="preserve" font-family="Baskerville" font-size="24.4" fill="#72665A" transform="matrix(1.00, 0.00, -0.00, -1.00, 315.8, 168.0)">o</text><text xml:space="preserve" font-family="Baskerville" font-size="24.4" fill="#72665A" transform="matrix(1.00, 0.00, -0.00, -1.00, 328.0, 168.0)"> </text><text xml:space="preserve" font-family="Baskerville" font-size="24.4" fill="#72665A" transform="matrix(1.00, 0.00, -0.00, -1.00, 334.1, 168.0)">c</text><text xml:space="preserve" font-family="Baskerville" font-size="24.4" fill="#72665A" transform="matrix(1.00, 0.00, -0.00, -1.00, 344.3, 168.0)">h</text><text xml:space="preserve" font-family="Baskerville" font-size="24.4" fill="#72665A" transform="matrix(1.00, 0.00, -0.00, -1.00, 357.2, 168.0)">o</text><text xml:space="preserve" font-family="Baskerville" font-size="24.4" fill="#72665A" transform="matrix(1.00, 0.00, -0.00, -1.00, 369.4, 168.0)"> </text><text xml:space="preserve" font-family="Baskerville" font-size="24.4" fill="#72665A" transform="matrix(1.00, 0.00, -0.00, -1.00, 375.5, 168.0)">e</text><text xml:space="preserve" font-family="Baskerville" font-size="24.4" fill="#72665A" transform="matrix(1.00, 0.00, -0.00, -1.00, 386.2, 168.0)">c</text><text xml:space="preserve" font-family="Baskerville" font-size="24.4" fill="#72665A" transform="matrix(1.00, 0.00, -0.00, -1.00, 396.6, 168.0)">o</text><text xml:space="preserve" font-family="Baskerville" font-size="24.4" fill="#72665A" transform="matrix(1.00, 0.00, -0.00, -1.00, 408.8, 168.0)">m</text><text xml:space="preserve" font-family="Baskerville" font-size="24.4" fill="#72665A" transform="matrix(1.00, 0.00, -0.00, -1.00, 428.4, 168.0)">m</text><text xml:space="preserve" font-family="Baskerville" font-size="24.4" fill="#72665A" transform="matrix(1.00, 0.00, -0.00, -1.00, 448.0, 168.0)">e</text><text xml:space="preserve" font-family="Baskerville" font-size="24.4" fill="#72665A" transform="matrix(1.00, 0.00, -0.00, -1.00, 458.7, 168.0)">r</text><text xml:space="preserve" font-family="Baskerville" font-size="24.4" fill="#72665A" transform="matrix(1.00, 0.00, -0.00, -1.00, 467.1, 168.0)">c</text><text xml:space="preserve" font-family="Baskerville" font-size="24.4" fill="#72665A" transform="matrix(1.00, 0.00, -0.00, -1.00, 477.5, 168.0)">e</text><text xml:space="preserve" font-family="Baskerville" font-size="24.4" fill="#72665A" transform="matrix(1.00, 0.00, -0.00, -1.00, 488.2, 168.0)"> </text><text xml:space="preserve" font-family="Baskerville" font-size="24.4" fill="#72665A" transform="matrix(1.00, 0.00, -0.00, -1.00, 494.3, 168.0)"> </text><text xml:space="preserve" font-family="Baskerville" font-size="24.4" fill="#72665A" transform="matrix(1.00, 0.00, -0.00, -1.00, 142.0, 115.6)">•</text><text xml:space="preserve" font-family="Baskerville" font-size="24.4" fill="#72665A" transform="matrix(1.00, 0.00, -0.00, -1.00, 162.0, 117.0)">Q</text><text xml:space="preserve" font-family="Baskerville" font-size="24.4" fill="#72665A" transform="matrix(1.00, 0.00, -0.00, -1.00, 182.1, 117.0)">u</text><text xml:space="preserve" font-family="Baskerville" font-size="24.4" fill="#72665A" transform="matrix(1.00, 0.00, -0.00, -1.00, 194.8, 117.0)">ả</text><text xml:space="preserve" font-family="Baskerville" font-size="24.4" fill="#72665A" transform="matrix(1.00, 0.00, -0.00, -1.00, 206.2, 117.0)">n</text><text xml:space="preserve" font-family="Baskerville" font-size="24.4" fill="#72665A" transform="matrix(1.00, 0.00, -0.00, -1.00, 219.2, 117.0)"> </text><text xml:space="preserve" font-family="Baskerville" font-size="24.4" fill="#72665A" transform="matrix(1.00, 0.00, -0.00, -1.00, 225.3, 117.0)">t</text><text xml:space="preserve" font-family="Baskerville" font-size="24.4" fill="#72665A" transform="matrix(1.00, 0.00, -0.00, -1.00, 232.4, 117.0)">r</text><text xml:space="preserve" font-family="Baskerville" font-size="24.4" fill="#72665A" transform="matrix(1.00, 0.00, -0.00, -1.00, 241.3, 117.0)">ị</text><text xml:space="preserve" font-family="Baskerville" font-size="24.4" fill="#72665A" transform="matrix(1.00, 0.00, -0.00, -1.00, 247.4, 117.0)"> </text><text xml:space="preserve" font-family="Baskerville" font-size="24.4" fill="#72665A" transform="matrix(1.00, 0.00, -0.00, -1.00, 253.5, 117.0)">đ</text><text xml:space="preserve" font-family="Baskerville" font-size="24.4" fill="#72665A" transform="matrix(1.00, 0.00, -0.00, -1.00, 266.2, 117.0)">ơ</text><text xml:space="preserve" font-family="Baskerville" font-size="24.4" fill="#72665A" transform="matrix(1.00, 0.00, -0.00, -1.00, 280.1, 117.0)">n</text><text xml:space="preserve" font-family="Baskerville" font-size="24.4" fill="#72665A" transform="matrix(1.00, 0.00, -0.00, -1.00, 293.1, 117.0)"> </text><text xml:space="preserve" font-family="Baskerville" font-size="24.4" fill="#72665A" transform="matrix(1.00, 0.00, -0.00, -1.00, 299.2, 117.0)">h</text><text xml:space="preserve" font-family="Baskerville" font-size="24.4" fill="#72665A" transform="matrix(1.00, 0.00, -0.00, -1.00, 312.2, 117.0)">à</text><text xml:space="preserve" font-family="Baskerville" font-size="24.4" fill="#72665A" transform="matrix(1.00, 0.00, -0.00, -1.00, 323.6, 117.0)">n</text><text xml:space="preserve" font-family="Baskerville" font-size="24.4" fill="#72665A" transform="matrix(1.00, 0.00, -0.00, -1.00, 336.6, 117.0)">g</text><text xml:space="preserve" font-family="Baskerville" font-size="24.4" fill="#72665A" transform="matrix(1.00, 0.00, -0.00, -1.00, 348.0, 117.0)"> </text><text xml:space="preserve" font-family="Baskerville" font-size="24.4" fill="#72665A" transform="matrix(1.00, 0.00, -0.00, -1.00, 142.0, 64.4)">•</text><text xml:space="preserve" font-family="Baskerville" font-size="24.4" fill="#72665A" transform="matrix(1.00, 0.00, -0.00, -1.00, 162.0, 65.0)">O</text><text xml:space="preserve" font-family="Baskerville" font-size="24.4" fill="#72665A" transform="matrix(1.00, 0.00, -0.00, -1.00, 182.1, 65.0)">n</text><text xml:space="preserve" font-family="Baskerville" font-size="24.4" fill="#72665A" transform="matrix(1.00, 0.00, -0.00, -1.00, 195.0, 65.0)">l</text><text xml:space="preserve" font-family="Baskerville" font-size="24.4" fill="#72665A" transform="matrix(1.00, 0.00, -0.00, -1.00, 200.9, 65.0)">i</text><text xml:space="preserve" font-family="Baskerville" font-size="24.4" fill="#72665A" transform="matrix(1.00, 0.00, -0.00, -1.00, 207.0, 65.0)">n</text><text xml:space="preserve" font-family="Baskerville" font-size="24.4" fill="#72665A" transform="matrix(1.00, 0.00, -0.00, -1.00, 220.0, 65.0)">e</text><text xml:space="preserve" font-family="Baskerville" font-size="24.4" fill="#72665A" transform="matrix(1.00, 0.00, -0.00, -1.00, 230.6, 65.0)"> </text><text xml:space="preserve" font-family="Baskerville" font-size="24.4" fill="#72665A" transform="matrix(1.00, 0.00, -0.00, -1.00, 236.7, 65.0)">m</text><text xml:space="preserve" font-family="Baskerville" font-size="24.4" fill="#72665A" transform="matrix(1.00, 0.00, -0.00, -1.00, 256.3, 65.0)">a</text><text xml:space="preserve" font-family="Baskerville" font-size="24.4" fill="#72665A" transform="matrix(1.00, 0.00, -0.00, -1.00, 267.7, 65.0)">r</text><text xml:space="preserve" font-family="Baskerville" font-size="24.4" fill="#72665A" transform="matrix(1.00, 0.00, -0.00, -1.00, 276.2, 65.0)">k</text><text xml:space="preserve" font-family="Baskerville" font-size="24.4" fill="#72665A" transform="matrix(1.00, 0.00, -0.00, -1.00, 287.4, 65.0)">e</text><text xml:space="preserve" font-family="Baskerville" font-size="24.4" fill="#72665A" transform="matrix(1.00, 0.00, -0.00, -1.00, 298.0, 65.0)">t</text><text xml:space="preserve" font-family="Baskerville" font-size="24.4" fill="#72665A" transform="matrix(1.00, 0.00, -0.00, -1.00, 305.1, 65.0)">i</text><text xml:space="preserve" font-family="Baskerville" font-size="24.4" fill="#72665A" transform="matrix(1.00, 0.00, -0.00, -1.00, 311.2, 65.0)">n</text><text xml:space="preserve" font-family="Baskerville" font-size="24.4" fill="#72665A" transform="matrix(1.00, 0.00, -0.00, -1.00, 324.2, 65.0)">g</text></g></svg>