<?xml version="1.0" encoding="UTF-8" standalone="no"?><svg xmlns="http://www.w3.org/2000/svg" xmlns:xlink="http://www.w3.org/1999/xlink" clip-rule="evenodd" stroke-miterlimit="4.00" viewBox="0 0 1024 768"><desc>SVG generated by Keynote</desc><defs></defs><g transform="matrix(1.00, 0.00, -0.00, -1.00, 0.0, 768.0)"><g><clipPath id="clip-111"><path d="M 0.0 768.0 L 1024.0 768.0 L 1024.0 0.0 L 0.0 0.0 Z M 0.0 768.0 "></path></clipPath><g clip-path="url(#clip-111)"><image xlink:href="../../816D42F0-3FFA-4A4A-BF77-3413583BF4C4/assets/A01A756C248906578542D347898470D6.jpeg" width="1024.00" height="768.00" transform="matrix(1.00, 0.00, -0.00, -1.00, 0.0, 768.0)"></image></g></g><text xml:space="preserve" font-family="Baskerville" font-size="58.0" fill="#817463" transform="matrix(1.00, 0.00, -0.00, -1.00, 87.0, 654.0)">P</text><text xml:space="preserve" font-family="Baskerville" font-size="58.0" fill="#817463" transform="matrix(1.00, 0.00, -0.00, -1.00, 119.6, 654.0)">h</text><text xml:space="preserve" font-family="Baskerville" font-size="58.0" fill="#817463" transform="matrix(1.00, 0.00, -0.00, -1.00, 150.4, 654.0)">á</text><text xml:space="preserve" font-family="Baskerville" font-size="58.0" fill="#817463" transform="matrix(1.00, 0.00, -0.00, -1.00, 177.6, 654.0)">t</text><text xml:space="preserve" font-family="Baskerville" font-size="58.0" fill="#817463" transform="matrix(1.00, 0.00, -0.00, -1.00, 194.5, 654.0)"> </text><text xml:space="preserve" font-family="Baskerville" font-size="58.0" fill="#817463" transform="matrix(1.00, 0.00, -0.00, -1.00, 209.0, 654.0)">t</text><text xml:space="preserve" font-family="Baskerville" font-size="58.0" fill="#817463" transform="matrix(1.00, 0.00, -0.00, -1.00, 225.9, 654.0)">r</text><text xml:space="preserve" font-family="Baskerville" font-size="58.0" fill="#817463" transform="matrix(1.00, 0.00, -0.00, -1.00, 247.0, 654.0)">i</text><text xml:space="preserve" font-family="Baskerville" font-size="58.0" fill="#817463" transform="matrix(1.00, 0.00, -0.00, -1.00, 261.5, 654.0)">ể</text><text xml:space="preserve" font-family="Baskerville" font-size="58.0" fill="#817463" transform="matrix(1.00, 0.00, -0.00, -1.00, 286.8, 654.0)">n</text><text xml:space="preserve" font-family="Baskerville" font-size="58.0" fill="#817463" transform="matrix(1.00, 0.00, -0.00, -1.00, 317.7, 654.0)"> </text><text xml:space="preserve" font-family="Baskerville" font-size="58.0" fill="#817463" transform="matrix(1.00, 0.00, -0.00, -1.00, 332.2, 654.0)">w</text><text xml:space="preserve" font-family="Baskerville" font-size="58.0" fill="#817463" transform="matrix(1.00, 0.00, -0.00, -1.00, 370.9, 654.0)">e</text><text xml:space="preserve" font-family="Baskerville" font-size="58.0" fill="#817463" transform="matrix(1.00, 0.00, -0.00, -1.00, 396.2, 654.0)">b</text><text xml:space="preserve" font-family="Baskerville" font-size="58.0" fill="#817463" transform="matrix(1.00, 0.00, -0.00, -1.00, 426.5, 654.0)"> </text><text xml:space="preserve" font-family="Baskerville" font-size="58.0" fill="#817463" transform="matrix(1.00, 0.00, -0.00, -1.00, 441.0, 654.0)">t</text><text xml:space="preserve" font-family="Baskerville" font-size="58.0" fill="#817463" transform="matrix(1.00, 0.00, -0.00, -1.00, 457.8, 654.0)">ĩ</text><text xml:space="preserve" font-family="Baskerville" font-size="58.0" fill="#817463" transform="matrix(1.00, 0.00, -0.00, -1.00, 472.3, 654.0)">n</text><text xml:space="preserve" font-family="Baskerville" font-size="58.0" fill="#817463" transform="matrix(1.00, 0.00, -0.00, -1.00, 503.2, 654.0)">h</text><text xml:space="preserve" font-family="Baskerville" font-size="58.0" fill="#817463" transform="matrix(1.00, 0.00, -0.00, -1.00, 534.0, 654.0)"> </text><text xml:space="preserve" font-family="Baskerville" font-size="58.0" fill="#817463" transform="matrix(1.00, 0.00, -0.00, -1.00, 548.5, 654.0)">s</text><text xml:space="preserve" font-family="Baskerville" font-size="58.0" fill="#817463" transform="matrix(1.00, 0.00, -0.00, -1.00, 567.9, 654.0)">ử</text><text xml:space="preserve" font-family="Baskerville" font-size="58.0" fill="#817463" transform="matrix(1.00, 0.00, -0.00, -1.00, 604.2, 654.0)"> </text><text xml:space="preserve" font-family="Baskerville" font-size="58.0" fill="#817463" transform="matrix(1.00, 0.00, -0.00, -1.00, 618.7, 654.0)">d</text><text xml:space="preserve" font-family="Baskerville" font-size="58.0" fill="#817463" transform="matrix(1.00, 0.00, -0.00, -1.00, 648.9, 654.0)">ụ</text><text xml:space="preserve" font-family="Baskerville" font-size="58.0" fill="#817463" transform="matrix(1.00, 0.00, -0.00, -1.00, 679.1, 654.0)">n</text><text xml:space="preserve" font-family="Baskerville" font-size="58.0" fill="#817463" transform="matrix(1.00, 0.00, -0.00, -1.00, 709.9, 654.0)">g</text><text xml:space="preserve" font-family="Baskerville" font-size="58.0" fill="#817463" transform="matrix(1.00, 0.00, -0.00, -1.00, 737.1, 654.0)"> </text><text xml:space="preserve" font-family="Baskerville" font-size="58.0" fill="#817463" transform="matrix(1.00, 0.00, -0.00, -1.00, 751.6, 654.0)">D</text><text xml:space="preserve" font-family="Baskerville" font-size="58.0" fill="#817463" transform="matrix(1.00, 0.00, -0.00, -1.00, 795.7, 654.0)">o</text><text xml:space="preserve" font-family="Baskerville" font-size="58.0" fill="#817463" transform="matrix(1.00, 0.00, -0.00, -1.00, 824.7, 654.0)">c</text><text xml:space="preserve" font-family="Baskerville" font-size="58.0" fill="#817463" transform="matrix(1.00, 0.00, -0.00, -1.00, 849.5, 654.0)">p</text><text xml:space="preserve" font-family="Baskerville" font-size="58.0" fill="#817463" transform="matrix(1.00, 0.00, -0.00, -1.00, 879.7, 654.0)">a</text><text xml:space="preserve" font-family="Baskerville" font-size="58.0" fill="#817463" transform="matrix(1.00, 0.00, -0.00, -1.00, 906.9, 654.0)">d</text><text xml:space="preserve" font-family="Baskerville" font-size="30.4" fill="#72665A" transform="matrix(1.00, 0.00, -0.00, -1.00, 76.0, 513.5)">•</text><text xml:space="preserve" font-family="Baskerville" font-size="30.4" fill="#72665A" transform="matrix(1.00, 0.00, -0.00, -1.00, 101.0, 514.0)">Ư</text><text xml:space="preserve" font-family="Baskerville" font-size="30.4" fill="#72665A" transform="matrix(1.00, 0.00, -0.00, -1.00, 126.7, 514.0)">u</text><text xml:space="preserve" font-family="Baskerville" font-size="30.4" fill="#72665A" transform="matrix(1.00, 0.00, -0.00, -1.00, 142.6, 514.0)"> </text><text xml:space="preserve" font-family="Baskerville" font-size="30.4" fill="#72665A" transform="matrix(1.00, 0.00, -0.00, -1.00, 150.2, 514.0)">đ</text><text xml:space="preserve" font-family="Baskerville" font-size="30.4" fill="#72665A" transform="matrix(1.00, 0.00, -0.00, -1.00, 166.0, 514.0)">i</text><text xml:space="preserve" font-family="Baskerville" font-size="30.4" fill="#72665A" transform="matrix(1.00, 0.00, -0.00, -1.00, 173.6, 514.0)">ể</text><text xml:space="preserve" font-family="Baskerville" font-size="30.4" fill="#72665A" transform="matrix(1.00, 0.00, -0.00, -1.00, 186.9, 514.0)">m</text><text xml:space="preserve" font-family="Baskerville" font-size="30.4" fill="#72665A" transform="matrix(1.00, 0.00, -0.00, -1.00, 211.3, 514.0)">:</text><text xml:space="preserve" font-family="Baskerville" font-size="30.4" fill="#72665A" transform="matrix(1.00, 0.00, -0.00, -1.00, 218.9, 514.0)"> </text><text xml:space="preserve" font-family="Baskerville" font-size="30.4" fill="#72665A" transform="matrix(1.00, 0.00, -0.00, -1.00, 109.0, 450.6)">•</text><text xml:space="preserve" font-family="Baskerville" font-size="30.4" fill="#72665A" transform="matrix(1.00, 0.00, -0.00, -1.00, 134.0, 452.0)">T</text><text xml:space="preserve" font-family="Baskerville" font-size="30.4" fill="#72665A" transform="matrix(1.00, 0.00, -0.00, -1.00, 155.5, 452.0)">h</text><text xml:space="preserve" font-family="Baskerville" font-size="30.4" fill="#72665A" transform="matrix(1.00, 0.00, -0.00, -1.00, 171.7, 452.0)">o</text><text xml:space="preserve" font-family="Baskerville" font-size="30.4" fill="#72665A" transform="matrix(1.00, 0.00, -0.00, -1.00, 186.9, 452.0)">ả</text><text xml:space="preserve" font-family="Baskerville" font-size="30.4" fill="#72665A" transform="matrix(1.00, 0.00, -0.00, -1.00, 201.1, 452.0)"> </text><text xml:space="preserve" font-family="Baskerville" font-size="30.4" fill="#72665A" transform="matrix(1.00, 0.00, -0.00, -1.00, 208.7, 452.0)">m</text><text xml:space="preserve" font-family="Baskerville" font-size="30.4" fill="#72665A" transform="matrix(1.00, 0.00, -0.00, -1.00, 233.1, 452.0)">ã</text><text xml:space="preserve" font-family="Baskerville" font-size="30.4" fill="#72665A" transform="matrix(1.00, 0.00, -0.00, -1.00, 247.3, 452.0)">n</text><text xml:space="preserve" font-family="Baskerville" font-size="30.4" fill="#72665A" transform="matrix(1.00, 0.00, -0.00, -1.00, 263.5, 452.0)"> </text><text xml:space="preserve" font-family="Baskerville" font-size="30.4" fill="#72665A" transform="matrix(1.00, 0.00, -0.00, -1.00, 271.1, 452.0)">A</text><text xml:space="preserve" font-family="Baskerville" font-size="30.4" fill="#72665A" transform="matrix(1.00, 0.00, -0.00, -1.00, 291.7, 452.0)">.</text><text xml:space="preserve" font-family="Baskerville" font-size="30.4" fill="#72665A" transform="matrix(1.00, 0.00, -0.00, -1.00, 299.3, 452.0)">1</text><text xml:space="preserve" font-family="Baskerville" font-size="30.4" fill="#72665A" transform="matrix(1.00, 0.00, -0.00, -1.00, 314.5, 452.0)">,</text><text xml:space="preserve" font-family="Baskerville" font-size="30.4" fill="#72665A" transform="matrix(1.00, 0.00, -0.00, -1.00, 322.1, 452.0)">2</text><text xml:space="preserve" font-family="Baskerville" font-size="30.4" fill="#72665A" transform="matrix(1.00, 0.00, -0.00, -1.00, 337.3, 452.0)">,</text><text xml:space="preserve" font-family="Baskerville" font-size="30.4" fill="#72665A" transform="matrix(1.00, 0.00, -0.00, -1.00, 344.9, 452.0)">3</text><text xml:space="preserve" font-family="Baskerville" font-size="30.4" fill="#72665A" transform="matrix(1.00, 0.00, -0.00, -1.00, 360.1, 452.0)"> </text><text xml:space="preserve" font-family="Baskerville" font-size="30.4" fill="#72665A" transform="matrix(1.00, 0.00, -0.00, -1.00, 367.7, 452.0)">v</text><text xml:space="preserve" font-family="Baskerville" font-size="30.4" fill="#72665A" transform="matrix(1.00, 0.00, -0.00, -1.00, 381.6, 452.0)">à</text><text xml:space="preserve" font-family="Baskerville" font-size="30.4" fill="#72665A" transform="matrix(1.00, 0.00, -0.00, -1.00, 395.9, 452.0)"> </text><text xml:space="preserve" font-family="Baskerville" font-size="30.4" fill="#72665A" transform="matrix(1.00, 0.00, -0.00, -1.00, 403.5, 452.0)">B</text><text xml:space="preserve" font-family="Baskerville" font-size="30.4" fill="#72665A" transform="matrix(1.00, 0.00, -0.00, -1.00, 421.9, 452.0)">.</text><text xml:space="preserve" font-family="Baskerville" font-size="30.4" fill="#72665A" transform="matrix(1.00, 0.00, -0.00, -1.00, 429.5, 452.0)">1</text><text xml:space="preserve" font-family="Baskerville" font-size="30.4" fill="#72665A" transform="matrix(1.00, 0.00, -0.00, -1.00, 444.7, 452.0)">,</text><text xml:space="preserve" font-family="Baskerville" font-size="30.4" fill="#72665A" transform="matrix(1.00, 0.00, -0.00, -1.00, 452.3, 452.0)">2</text><text xml:space="preserve" font-family="Baskerville" font-size="30.4" fill="#72665A" transform="matrix(1.00, 0.00, -0.00, -1.00, 467.5, 452.0)"> </text><text xml:space="preserve" font-family="Baskerville" font-size="30.4" fill="#72665A" transform="matrix(1.00, 0.00, -0.00, -1.00, 475.1, 452.0)">v</text><text xml:space="preserve" font-family="Baskerville" font-size="30.4" fill="#72665A" transform="matrix(1.00, 0.00, -0.00, -1.00, 489.0, 452.0)">à</text><text xml:space="preserve" font-family="Baskerville" font-size="30.4" fill="#72665A" transform="matrix(1.00, 0.00, -0.00, -1.00, 503.3, 452.0)"> </text><text xml:space="preserve" font-family="Baskerville" font-size="30.4" fill="#72665A" transform="matrix(1.00, 0.00, -0.00, -1.00, 510.9, 452.0)">C</text><text xml:space="preserve" font-family="Baskerville" font-size="30.4" fill="#72665A" transform="matrix(1.00, 0.00, -0.00, -1.00, 532.7, 452.0)">.</text><text xml:space="preserve" font-family="Baskerville" font-size="30.4" fill="#72665A" transform="matrix(1.00, 0.00, -0.00, -1.00, 540.3, 452.0)">1</text><text xml:space="preserve" font-family="Baskerville" font-size="30.4" fill="#72665A" transform="matrix(1.00, 0.00, -0.00, -1.00, 555.5, 452.0)"> </text><text xml:space="preserve" font-family="Baskerville" font-size="30.4" fill="#72665A" transform="matrix(1.00, 0.00, -0.00, -1.00, 76.0, 387.7)">•</text><text xml:space="preserve" font-family="Baskerville" font-size="30.4" fill="#72665A" transform="matrix(1.00, 0.00, -0.00, -1.00, 101.0, 389.0)">N</text><text xml:space="preserve" font-family="Baskerville" font-size="30.4" fill="#72665A" transform="matrix(1.00, 0.00, -0.00, -1.00, 123.8, 389.0)">h</text><text xml:space="preserve" font-family="Baskerville" font-size="30.4" fill="#72665A" transform="matrix(1.00, 0.00, -0.00, -1.00, 140.0, 389.0)">ư</text><text xml:space="preserve" font-family="Baskerville" font-size="30.4" fill="#72665A" transform="matrix(1.00, 0.00, -0.00, -1.00, 159.0, 389.0)">ợ</text><text xml:space="preserve" font-family="Baskerville" font-size="30.4" fill="#72665A" transform="matrix(1.00, 0.00, -0.00, -1.00, 176.4, 389.0)">c</text><text xml:space="preserve" font-family="Baskerville" font-size="30.4" fill="#72665A" transform="matrix(1.00, 0.00, -0.00, -1.00, 189.4, 389.0)"> </text><text xml:space="preserve" font-family="Baskerville" font-size="30.4" fill="#72665A" transform="matrix(1.00, 0.00, -0.00, -1.00, 197.0, 389.0)">đ</text><text xml:space="preserve" font-family="Baskerville" font-size="30.4" fill="#72665A" transform="matrix(1.00, 0.00, -0.00, -1.00, 212.8, 389.0)">i</text><text xml:space="preserve" font-family="Baskerville" font-size="30.4" fill="#72665A" transform="matrix(1.00, 0.00, -0.00, -1.00, 220.4, 389.0)">ể</text><text xml:space="preserve" font-family="Baskerville" font-size="30.4" fill="#72665A" transform="matrix(1.00, 0.00, -0.00, -1.00, 233.7, 389.0)">m</text><text xml:space="preserve" font-family="Baskerville" font-size="30.4" fill="#72665A" transform="matrix(1.00, 0.00, -0.00, -1.00, 258.1, 389.0)">:</text><text xml:space="preserve" font-family="Baskerville" font-size="30.4" fill="#72665A" transform="matrix(1.00, 0.00, -0.00, -1.00, 265.7, 389.0)"> </text><text xml:space="preserve" font-family="Baskerville" font-size="30.4" fill="#72665A" transform="matrix(1.00, 0.00, -0.00, -1.00, 129.0, 325.8)">1</text><text xml:space="preserve" font-family="Baskerville" font-size="30.4" fill="#72665A" transform="matrix(1.00, 0.00, -0.00, -1.00, 144.2, 325.8)">.</text><text xml:space="preserve" font-family="Baskerville" font-size="30.4" fill="#72665A" transform="matrix(1.00, 0.00, -0.00, -1.00, 169.0, 326.0)">K</text><text xml:space="preserve" font-family="Baskerville" font-size="30.4" fill="#72665A" transform="matrix(1.00, 0.00, -0.00, -1.00, 192.8, 326.0)">h</text><text xml:space="preserve" font-family="Baskerville" font-size="30.4" fill="#72665A" transform="matrix(1.00, 0.00, -0.00, -1.00, 208.9, 326.0)">ó</text><text xml:space="preserve" font-family="Baskerville" font-size="30.4" fill="#72665A" transform="matrix(1.00, 0.00, -0.00, -1.00, 224.1, 326.0)"> </text><text xml:space="preserve" font-family="Baskerville" font-size="30.4" fill="#72665A" transform="matrix(1.00, 0.00, -0.00, -1.00, 231.7, 326.0)">k</text><text xml:space="preserve" font-family="Baskerville" font-size="30.4" fill="#72665A" transform="matrix(1.00, 0.00, -0.00, -1.00, 245.7, 326.0)">h</text><text xml:space="preserve" font-family="Baskerville" font-size="30.4" fill="#72665A" transform="matrix(1.00, 0.00, -0.00, -1.00, 261.8, 326.0)">ă</text><text xml:space="preserve" font-family="Baskerville" font-size="30.4" fill="#72665A" transform="matrix(1.00, 0.00, -0.00, -1.00, 276.1, 326.0)">n</text><text xml:space="preserve" font-family="Baskerville" font-size="30.4" fill="#72665A" transform="matrix(1.00, 0.00, -0.00, -1.00, 292.2, 326.0)"> </text><text xml:space="preserve" font-family="Baskerville" font-size="30.4" fill="#72665A" transform="matrix(1.00, 0.00, -0.00, -1.00, 299.8, 326.0)">t</text><text xml:space="preserve" font-family="Baskerville" font-size="30.4" fill="#72665A" transform="matrix(1.00, 0.00, -0.00, -1.00, 308.7, 326.0)">r</text><text xml:space="preserve" font-family="Baskerville" font-size="30.4" fill="#72665A" transform="matrix(1.00, 0.00, -0.00, -1.00, 319.2, 326.0)">o</text><text xml:space="preserve" font-family="Baskerville" font-size="30.4" fill="#72665A" transform="matrix(1.00, 0.00, -0.00, -1.00, 334.4, 326.0)">n</text><text xml:space="preserve" font-family="Baskerville" font-size="30.4" fill="#72665A" transform="matrix(1.00, 0.00, -0.00, -1.00, 350.5, 326.0)">g</text><text xml:space="preserve" font-family="Baskerville" font-size="30.4" fill="#72665A" transform="matrix(1.00, 0.00, -0.00, -1.00, 364.8, 326.0)"> </text><text xml:space="preserve" font-family="Baskerville" font-size="30.4" fill="#72665A" transform="matrix(1.00, 0.00, -0.00, -1.00, 372.4, 326.0)">v</text><text xml:space="preserve" font-family="Baskerville" font-size="30.4" fill="#72665A" transform="matrix(1.00, 0.00, -0.00, -1.00, 386.3, 326.0)">i</text><text xml:space="preserve" font-family="Baskerville" font-size="30.4" fill="#72665A" transform="matrix(1.00, 0.00, -0.00, -1.00, 393.9, 326.0)">ệ</text><text xml:space="preserve" font-family="Baskerville" font-size="30.4" fill="#72665A" transform="matrix(1.00, 0.00, -0.00, -1.00, 407.2, 326.0)">c</text><text xml:space="preserve" font-family="Baskerville" font-size="30.4" fill="#72665A" transform="matrix(1.00, 0.00, -0.00, -1.00, 420.2, 326.0)"> </text><text xml:space="preserve" font-family="Baskerville" font-size="30.4" fill="#72665A" transform="matrix(1.00, 0.00, -0.00, -1.00, 427.8, 326.0)">q</text><text xml:space="preserve" font-family="Baskerville" font-size="30.4" fill="#72665A" transform="matrix(1.00, 0.00, -0.00, -1.00, 443.6, 326.0)">u</text><text xml:space="preserve" font-family="Baskerville" font-size="30.4" fill="#72665A" transform="matrix(1.00, 0.00, -0.00, -1.00, 459.5, 326.0)">ả</text><text xml:space="preserve" font-family="Baskerville" font-size="30.4" fill="#72665A" transform="matrix(1.00, 0.00, -0.00, -1.00, 473.7, 326.0)">n</text><text xml:space="preserve" font-family="Baskerville" font-size="30.4" fill="#72665A" transform="matrix(1.00, 0.00, -0.00, -1.00, 489.9, 326.0)"> </text><text xml:space="preserve" font-family="Baskerville" font-size="30.4" fill="#72665A" transform="matrix(1.00, 0.00, -0.00, -1.00, 497.5, 326.0)">t</text><text xml:space="preserve" font-family="Baskerville" font-size="30.4" fill="#72665A" transform="matrix(1.00, 0.00, -0.00, -1.00, 506.3, 326.0)">r</text><text xml:space="preserve" font-family="Baskerville" font-size="30.4" fill="#72665A" transform="matrix(1.00, 0.00, -0.00, -1.00, 517.4, 326.0)">ị</text><text xml:space="preserve" font-family="Baskerville" font-size="30.4" fill="#72665A" transform="matrix(1.00, 0.00, -0.00, -1.00, 525.0, 326.0)">,</text><text xml:space="preserve" font-family="Baskerville" font-size="30.4" fill="#72665A" transform="matrix(1.00, 0.00, -0.00, -1.00, 532.6, 326.0)"> </text><text xml:space="preserve" font-family="Baskerville" font-size="30.4" fill="#72665A" transform="matrix(1.00, 0.00, -0.00, -1.00, 540.2, 326.0)">c</text><text xml:space="preserve" font-family="Baskerville" font-size="30.4" fill="#72665A" transform="matrix(1.00, 0.00, -0.00, -1.00, 553.2, 326.0)">ậ</text><text xml:space="preserve" font-family="Baskerville" font-size="30.4" fill="#72665A" transform="matrix(1.00, 0.00, -0.00, -1.00, 567.4, 326.0)">p</text><text xml:space="preserve" font-family="Baskerville" font-size="30.4" fill="#72665A" transform="matrix(1.00, 0.00, -0.00, -1.00, 583.3, 326.0)"> </text><text xml:space="preserve" font-family="Baskerville" font-size="30.4" fill="#72665A" transform="matrix(1.00, 0.00, -0.00, -1.00, 590.9, 326.0)">n</text><text xml:space="preserve" font-family="Baskerville" font-size="30.4" fill="#72665A" transform="matrix(1.00, 0.00, -0.00, -1.00, 607.0, 326.0)">h</text><text xml:space="preserve" font-family="Baskerville" font-size="30.4" fill="#72665A" transform="matrix(1.00, 0.00, -0.00, -1.00, 623.2, 326.0)">ậ</text><text xml:space="preserve" font-family="Baskerville" font-size="30.4" fill="#72665A" transform="matrix(1.00, 0.00, -0.00, -1.00, 637.4, 326.0)">t</text><text xml:space="preserve" font-family="Baskerville" font-size="30.4" fill="#72665A" transform="matrix(1.00, 0.00, -0.00, -1.00, 646.3, 326.0)"> </text><text xml:space="preserve" font-family="Baskerville" font-size="30.4" fill="#72665A" transform="matrix(1.00, 0.00, -0.00, -1.00, 653.9, 326.0)">t</text><text xml:space="preserve" font-family="Baskerville" font-size="30.4" fill="#72665A" transform="matrix(1.00, 0.00, -0.00, -1.00, 662.7, 326.0)">h</text><text xml:space="preserve" font-family="Baskerville" font-size="30.4" fill="#72665A" transform="matrix(1.00, 0.00, -0.00, -1.00, 678.9, 326.0)">ô</text><text xml:space="preserve" font-family="Baskerville" font-size="30.4" fill="#72665A" transform="matrix(1.00, 0.00, -0.00, -1.00, 694.1, 326.0)">n</text><text xml:space="preserve" font-family="Baskerville" font-size="30.4" fill="#72665A" transform="matrix(1.00, 0.00, -0.00, -1.00, 710.2, 326.0)">g</text><text xml:space="preserve" font-family="Baskerville" font-size="30.4" fill="#72665A" transform="matrix(1.00, 0.00, -0.00, -1.00, 724.5, 326.0)"> </text><text xml:space="preserve" font-family="Baskerville" font-size="30.4" fill="#72665A" transform="matrix(1.00, 0.00, -0.00, -1.00, 732.1, 326.0)">t</text><text xml:space="preserve" font-family="Baskerville" font-size="30.4" fill="#72665A" transform="matrix(1.00, 0.00, -0.00, -1.00, 740.9, 326.0)">i</text><text xml:space="preserve" font-family="Baskerville" font-size="30.4" fill="#72665A" transform="matrix(1.00, 0.00, -0.00, -1.00, 748.5, 326.0)">n</text><text xml:space="preserve" font-family="Baskerville" font-size="30.4" fill="#72665A" transform="matrix(1.00, 0.00, -0.00, -1.00, 764.7, 326.0)"> </text><text xml:space="preserve" font-family="Baskerville" font-size="30.4" fill="#72665A" transform="matrix(1.00, 0.00, -0.00, -1.00, 129.0, 263.0)">2</text><text xml:space="preserve" font-family="Baskerville" font-size="30.4" fill="#72665A" transform="matrix(1.00, 0.00, -0.00, -1.00, 144.2, 263.0)">.</text><text xml:space="preserve" font-family="Baskerville" font-size="30.4" fill="#72665A" transform="matrix(1.00, 0.00, -0.00, -1.00, 169.0, 263.0)">T</text><text xml:space="preserve" font-family="Baskerville" font-size="30.4" fill="#72665A" transform="matrix(1.00, 0.00, -0.00, -1.00, 190.5, 263.0)">h</text><text xml:space="preserve" font-family="Baskerville" font-size="30.4" fill="#72665A" transform="matrix(1.00, 0.00, -0.00, -1.00, 206.7, 263.0)">o</text><text xml:space="preserve" font-family="Baskerville" font-size="30.4" fill="#72665A" transform="matrix(1.00, 0.00, -0.00, -1.00, 221.9, 263.0)">ả</text><text xml:space="preserve" font-family="Baskerville" font-size="30.4" fill="#72665A" transform="matrix(1.00, 0.00, -0.00, -1.00, 236.1, 263.0)"> </text><text xml:space="preserve" font-family="Baskerville" font-size="30.4" fill="#72665A" transform="matrix(1.00, 0.00, -0.00, -1.00, 243.7, 263.0)">m</text><text xml:space="preserve" font-family="Baskerville" font-size="30.4" fill="#72665A" transform="matrix(1.00, 0.00, -0.00, -1.00, 268.1, 263.0)">ã</text><text xml:space="preserve" font-family="Baskerville" font-size="30.4" fill="#72665A" transform="matrix(1.00, 0.00, -0.00, -1.00, 282.3, 263.0)">n</text><text xml:space="preserve" font-family="Baskerville" font-size="30.4" fill="#72665A" transform="matrix(1.00, 0.00, -0.00, -1.00, 298.5, 263.0)"> </text><text xml:space="preserve" font-family="Baskerville" font-size="30.4" fill="#72665A" transform="matrix(1.00, 0.00, -0.00, -1.00, 306.1, 263.0)">n</text><text xml:space="preserve" font-family="Baskerville" font-size="30.4" fill="#72665A" transform="matrix(1.00, 0.00, -0.00, -1.00, 322.3, 263.0)">h</text><text xml:space="preserve" font-family="Baskerville" font-size="30.4" fill="#72665A" transform="matrix(1.00, 0.00, -0.00, -1.00, 338.4, 263.0)">u</text><text xml:space="preserve" font-family="Baskerville" font-size="30.4" fill="#72665A" transform="matrix(1.00, 0.00, -0.00, -1.00, 354.2, 263.0)"> </text><text xml:space="preserve" font-family="Baskerville" font-size="30.4" fill="#72665A" transform="matrix(1.00, 0.00, -0.00, -1.00, 361.8, 263.0)">c</text><text xml:space="preserve" font-family="Baskerville" font-size="30.4" fill="#72665A" transform="matrix(1.00, 0.00, -0.00, -1.00, 374.8, 263.0)">ầ</text><text xml:space="preserve" font-family="Baskerville" font-size="30.4" fill="#72665A" transform="matrix(1.00, 0.00, -0.00, -1.00, 389.1, 263.0)">u</text><text xml:space="preserve" font-family="Baskerville" font-size="30.4" fill="#72665A" transform="matrix(1.00, 0.00, -0.00, -1.00, 404.9, 263.0)"> </text><text xml:space="preserve" font-family="Baskerville" font-size="30.4" fill="#72665A" transform="matrix(1.00, 0.00, -0.00, -1.00, 412.5, 263.0)">w</text><text xml:space="preserve" font-family="Baskerville" font-size="30.4" fill="#72665A" transform="matrix(1.00, 0.00, -0.00, -1.00, 432.8, 263.0)">e</text><text xml:space="preserve" font-family="Baskerville" font-size="30.4" fill="#72665A" transform="matrix(1.00, 0.00, -0.00, -1.00, 446.1, 263.0)">b</text><text xml:space="preserve" font-family="Baskerville" font-size="30.4" fill="#72665A" transform="matrix(1.00, 0.00, -0.00, -1.00, 461.9, 263.0)">s</text><text xml:space="preserve" font-family="Baskerville" font-size="30.4" fill="#72665A" transform="matrix(1.00, 0.00, -0.00, -1.00, 472.1, 263.0)">i</text><text xml:space="preserve" font-family="Baskerville" font-size="30.4" fill="#72665A" transform="matrix(1.00, 0.00, -0.00, -1.00, 479.7, 263.0)">t</text><text xml:space="preserve" font-family="Baskerville" font-size="30.4" fill="#72665A" transform="matrix(1.00, 0.00, -0.00, -1.00, 488.5, 263.0)">e</text><text xml:space="preserve" font-family="Baskerville" font-size="30.4" fill="#72665A" transform="matrix(1.00, 0.00, -0.00, -1.00, 501.8, 263.0)"> </text><text xml:space="preserve" font-family="Baskerville" font-size="30.4" fill="#72665A" transform="matrix(1.00, 0.00, -0.00, -1.00, 509.4, 263.0)">h</text><text xml:space="preserve" font-family="Baskerville" font-size="30.4" fill="#72665A" transform="matrix(1.00, 0.00, -0.00, -1.00, 525.6, 263.0)">i</text><text xml:space="preserve" font-family="Baskerville" font-size="30.4" fill="#72665A" transform="matrix(1.00, 0.00, -0.00, -1.00, 533.2, 263.0)">ể</text><text xml:space="preserve" font-family="Baskerville" font-size="30.4" fill="#72665A" transform="matrix(1.00, 0.00, -0.00, -1.00, 546.5, 263.0)">n</text><text xml:space="preserve" font-family="Baskerville" font-size="30.4" fill="#72665A" transform="matrix(1.00, 0.00, -0.00, -1.00, 562.6, 263.0)"> </text><text xml:space="preserve" font-family="Baskerville" font-size="30.4" fill="#72665A" transform="matrix(1.00, 0.00, -0.00, -1.00, 570.2, 263.0)">t</text><text xml:space="preserve" font-family="Baskerville" font-size="30.4" fill="#72665A" transform="matrix(1.00, 0.00, -0.00, -1.00, 579.1, 263.0)">h</text><text xml:space="preserve" font-family="Baskerville" font-size="30.4" fill="#72665A" transform="matrix(1.00, 0.00, -0.00, -1.00, 595.2, 263.0)">ị</text><text xml:space="preserve" font-family="Baskerville" font-size="30.4" fill="#72665A" transform="matrix(1.00, 0.00, -0.00, -1.00, 602.8, 263.0)"> </text><text xml:space="preserve" font-family="Baskerville" font-size="30.4" fill="#72665A" transform="matrix(1.00, 0.00, -0.00, -1.00, 610.4, 263.0)">t</text><text xml:space="preserve" font-family="Baskerville" font-size="30.4" fill="#72665A" transform="matrix(1.00, 0.00, -0.00, -1.00, 619.3, 263.0)">h</text><text xml:space="preserve" font-family="Baskerville" font-size="30.4" fill="#72665A" transform="matrix(1.00, 0.00, -0.00, -1.00, 635.4, 263.0)">ô</text><text xml:space="preserve" font-family="Baskerville" font-size="30.4" fill="#72665A" transform="matrix(1.00, 0.00, -0.00, -1.00, 650.6, 263.0)">n</text><text xml:space="preserve" font-family="Baskerville" font-size="30.4" fill="#72665A" transform="matrix(1.00, 0.00, -0.00, -1.00, 666.8, 263.0)">g</text><text xml:space="preserve" font-family="Baskerville" font-size="30.4" fill="#72665A" transform="matrix(1.00, 0.00, -0.00, -1.00, 681.0, 263.0)"> </text><text xml:space="preserve" font-family="Baskerville" font-size="30.4" fill="#72665A" transform="matrix(1.00, 0.00, -0.00, -1.00, 688.6, 263.0)">t</text><text xml:space="preserve" font-family="Baskerville" font-size="30.4" fill="#72665A" transform="matrix(1.00, 0.00, -0.00, -1.00, 697.5, 263.0)">i</text><text xml:space="preserve" font-family="Baskerville" font-size="30.4" fill="#72665A" transform="matrix(1.00, 0.00, -0.00, -1.00, 705.1, 263.0)">n</text><text xml:space="preserve" font-family="Baskerville" font-size="30.4" fill="#72665A" transform="matrix(1.00, 0.00, -0.00, -1.00, 721.2, 263.0)">:</text><text xml:space="preserve" font-family="Baskerville" font-size="30.4" fill="#72665A" transform="matrix(1.00, 0.00, -0.00, -1.00, 728.8, 263.0)"> </text><text xml:space="preserve" font-family="Baskerville" font-size="30.4" fill="#72665A" transform="matrix(1.00, 0.00, -0.00, -1.00, 142.0, 199.1)">•</text><text xml:space="preserve" font-family="Baskerville" font-size="30.4" fill="#72665A" transform="matrix(1.00, 0.00, -0.00, -1.00, 167.0, 200.0)">g</text><text xml:space="preserve" font-family="Baskerville" font-size="30.4" fill="#72665A" transform="matrix(1.00, 0.00, -0.00, -1.00, 181.2, 200.0)">i</text><text xml:space="preserve" font-family="Baskerville" font-size="30.4" fill="#72665A" transform="matrix(1.00, 0.00, -0.00, -1.00, 188.8, 200.0)">ớ</text><text xml:space="preserve" font-family="Baskerville" font-size="30.4" fill="#72665A" transform="matrix(1.00, 0.00, -0.00, -1.00, 206.2, 200.0)">i</text><text xml:space="preserve" font-family="Baskerville" font-size="30.4" fill="#72665A" transform="matrix(1.00, 0.00, -0.00, -1.00, 213.8, 200.0)"> </text><text xml:space="preserve" font-family="Baskerville" font-size="30.4" fill="#72665A" transform="matrix(1.00, 0.00, -0.00, -1.00, 221.4, 200.0)">t</text><text xml:space="preserve" font-family="Baskerville" font-size="30.4" fill="#72665A" transform="matrix(1.00, 0.00, -0.00, -1.00, 230.3, 200.0)">h</text><text xml:space="preserve" font-family="Baskerville" font-size="30.4" fill="#72665A" transform="matrix(1.00, 0.00, -0.00, -1.00, 246.4, 200.0)">i</text><text xml:space="preserve" font-family="Baskerville" font-size="30.4" fill="#72665A" transform="matrix(1.00, 0.00, -0.00, -1.00, 254.0, 200.0)">ệ</text><text xml:space="preserve" font-family="Baskerville" font-size="30.4" fill="#72665A" transform="matrix(1.00, 0.00, -0.00, -1.00, 267.3, 200.0)">u</text><text xml:space="preserve" font-family="Baskerville" font-size="30.4" fill="#72665A" transform="matrix(1.00, 0.00, -0.00, -1.00, 283.1, 200.0)"> </text><text xml:space="preserve" font-family="Baskerville" font-size="30.4" fill="#72665A" transform="matrix(1.00, 0.00, -0.00, -1.00, 290.7, 200.0)">c</text><text xml:space="preserve" font-family="Baskerville" font-size="30.4" fill="#72665A" transform="matrix(1.00, 0.00, -0.00, -1.00, 303.7, 200.0)">ô</text><text xml:space="preserve" font-family="Baskerville" font-size="30.4" fill="#72665A" transform="matrix(1.00, 0.00, -0.00, -1.00, 318.9, 200.0)">n</text><text xml:space="preserve" font-family="Baskerville" font-size="30.4" fill="#72665A" transform="matrix(1.00, 0.00, -0.00, -1.00, 335.1, 200.0)">g</text><text xml:space="preserve" font-family="Baskerville" font-size="30.4" fill="#72665A" transform="matrix(1.00, 0.00, -0.00, -1.00, 349.3, 200.0)"> </text><text xml:space="preserve" font-family="Baskerville" font-size="30.4" fill="#72665A" transform="matrix(1.00, 0.00, -0.00, -1.00, 356.9, 200.0)">t</text><text xml:space="preserve" font-family="Baskerville" font-size="30.4" fill="#72665A" transform="matrix(1.00, 0.00, -0.00, -1.00, 365.8, 200.0)">y</text><text xml:space="preserve" font-family="Baskerville" font-size="30.4" fill="#72665A" transform="matrix(1.00, 0.00, -0.00, -1.00, 379.7, 200.0)"> </text><text xml:space="preserve" font-family="Baskerville" font-size="30.4" fill="#72665A" transform="matrix(1.00, 0.00, -0.00, -1.00, 142.0, 136.2)">•</text><text xml:space="preserve" font-family="Baskerville" font-size="30.4" fill="#72665A" transform="matrix(1.00, 0.00, -0.00, -1.00, 167.0, 137.0)">t</text><text xml:space="preserve" font-family="Baskerville" font-size="30.4" fill="#72665A" transform="matrix(1.00, 0.00, -0.00, -1.00, 175.8, 137.0)">r</text><text xml:space="preserve" font-family="Baskerville" font-size="30.4" fill="#72665A" transform="matrix(1.00, 0.00, -0.00, -1.00, 186.9, 137.0)">a</text><text xml:space="preserve" font-family="Baskerville" font-size="30.4" fill="#72665A" transform="matrix(1.00, 0.00, -0.00, -1.00, 201.2, 137.0)">n</text><text xml:space="preserve" font-family="Baskerville" font-size="30.4" fill="#72665A" transform="matrix(1.00, 0.00, -0.00, -1.00, 217.3, 137.0)">g</text><text xml:space="preserve" font-family="Baskerville" font-size="30.4" fill="#72665A" transform="matrix(1.00, 0.00, -0.00, -1.00, 231.6, 137.0)"> </text><text xml:space="preserve" font-family="Baskerville" font-size="30.4" fill="#72665A" transform="matrix(1.00, 0.00, -0.00, -1.00, 239.2, 137.0)">t</text><text xml:space="preserve" font-family="Baskerville" font-size="30.4" fill="#72665A" transform="matrix(1.00, 0.00, -0.00, -1.00, 248.0, 137.0)">i</text><text xml:space="preserve" font-family="Baskerville" font-size="30.4" fill="#72665A" transform="matrix(1.00, 0.00, -0.00, -1.00, 255.6, 137.0)">n</text><text xml:space="preserve" font-family="Baskerville" font-size="30.4" fill="#72665A" transform="matrix(1.00, 0.00, -0.00, -1.00, 271.8, 137.0)"> </text><text xml:space="preserve" font-family="Baskerville" font-size="30.4" fill="#72665A" transform="matrix(1.00, 0.00, -0.00, -1.00, 279.4, 137.0)">t</text><text xml:space="preserve" font-family="Baskerville" font-size="30.4" fill="#72665A" transform="matrix(1.00, 0.00, -0.00, -1.00, 288.2, 137.0)">ứ</text><text xml:space="preserve" font-family="Baskerville" font-size="30.4" fill="#72665A" transform="matrix(1.00, 0.00, -0.00, -1.00, 307.3, 137.0)">c</text><text xml:space="preserve" font-family="Baskerville" font-size="30.4" fill="#72665A" transform="matrix(1.00, 0.00, -0.00, -1.00, 320.2, 137.0)">,</text><text xml:space="preserve" font-family="Baskerville" font-size="30.4" fill="#72665A" transform="matrix(1.00, 0.00, -0.00, -1.00, 327.8, 137.0)"> </text><text xml:space="preserve" font-family="Baskerville" font-size="30.4" fill="#72665A" transform="matrix(1.00, 0.00, -0.00, -1.00, 335.4, 137.0)">b</text><text xml:space="preserve" font-family="Baskerville" font-size="30.4" fill="#72665A" transform="matrix(1.00, 0.00, -0.00, -1.00, 351.0, 137.0)">l</text><text xml:space="preserve" font-family="Baskerville" font-size="30.4" fill="#72665A" transform="matrix(1.00, 0.00, -0.00, -1.00, 358.3, 137.0)">o</text><text xml:space="preserve" font-family="Baskerville" font-size="30.4" fill="#72665A" transform="matrix(1.00, 0.00, -0.00, -1.00, 373.5, 137.0)">g</text><text xml:space="preserve" font-family="Baskerville" font-size="30.4" fill="#72665A" transform="matrix(1.00, 0.00, -0.00, -1.00, 387.8, 137.0)"> </text><text xml:space="preserve" font-family="Baskerville" font-size="30.4" fill="#72665A" transform="matrix(1.00, 0.00, -0.00, -1.00, 129.0, 74.3)">3</text><text xml:space="preserve" font-family="Baskerville" font-size="30.4" fill="#72665A" transform="matrix(1.00, 0.00, -0.00, -1.00, 144.2, 74.3)">.</text><text xml:space="preserve" font-family="Baskerville" font-size="30.4" fill="#72665A" transform="matrix(1.00, 0.00, -0.00, -1.00, 169.0, 74.0)">V</text><text xml:space="preserve" font-family="Baskerville" font-size="30.4" fill="#72665A" transform="matrix(1.00, 0.00, -0.00, -1.00, 190.0, 74.0)">i</text><text xml:space="preserve" font-family="Baskerville" font-size="30.4" fill="#72665A" transform="matrix(1.00, 0.00, -0.00, -1.00, 197.6, 74.0)">ệ</text><text xml:space="preserve" font-family="Baskerville" font-size="30.4" fill="#72665A" transform="matrix(1.00, 0.00, -0.00, -1.00, 210.9, 74.0)">c</text><text xml:space="preserve" font-family="Baskerville" font-size="30.4" fill="#72665A" transform="matrix(1.00, 0.00, -0.00, -1.00, 223.9, 74.0)"> </text><text xml:space="preserve" font-family="Baskerville" font-size="30.4" fill="#72665A" transform="matrix(1.00, 0.00, -0.00, -1.00, 231.5, 74.0)">t</text><text xml:space="preserve" font-family="Baskerville" font-size="30.4" fill="#72665A" transform="matrix(1.00, 0.00, -0.00, -1.00, 240.4, 74.0)">r</text><text xml:space="preserve" font-family="Baskerville" font-size="30.4" fill="#72665A" transform="matrix(1.00, 0.00, -0.00, -1.00, 251.4, 74.0)">i</text><text xml:space="preserve" font-family="Baskerville" font-size="30.4" fill="#72665A" transform="matrix(1.00, 0.00, -0.00, -1.00, 259.0, 74.0)">ể</text><text xml:space="preserve" font-family="Baskerville" font-size="30.4" fill="#72665A" transform="matrix(1.00, 0.00, -0.00, -1.00, 272.3, 74.0)">n</text><text xml:space="preserve" font-family="Baskerville" font-size="30.4" fill="#72665A" transform="matrix(1.00, 0.00, -0.00, -1.00, 288.5, 74.0)"> </text><text xml:space="preserve" font-family="Baskerville" font-size="30.4" fill="#72665A" transform="matrix(1.00, 0.00, -0.00, -1.00, 296.1, 74.0)">k</text><text xml:space="preserve" font-family="Baskerville" font-size="30.4" fill="#72665A" transform="matrix(1.00, 0.00, -0.00, -1.00, 310.0, 74.0)">h</text><text xml:space="preserve" font-family="Baskerville" font-size="30.4" fill="#72665A" transform="matrix(1.00, 0.00, -0.00, -1.00, 326.2, 74.0)">a</text><text xml:space="preserve" font-family="Baskerville" font-size="30.4" fill="#72665A" transform="matrix(1.00, 0.00, -0.00, -1.00, 340.4, 74.0)">i</text><text xml:space="preserve" font-family="Baskerville" font-size="30.4" fill="#72665A" transform="matrix(1.00, 0.00, -0.00, -1.00, 348.0, 74.0)"> </text><text xml:space="preserve" font-family="Baskerville" font-size="30.4" fill="#72665A" transform="matrix(1.00, 0.00, -0.00, -1.00, 355.6, 74.0)">y</text><text xml:space="preserve" font-family="Baskerville" font-size="30.4" fill="#72665A" transform="matrix(1.00, 0.00, -0.00, -1.00, 369.6, 74.0)">ê</text><text xml:space="preserve" font-family="Baskerville" font-size="30.4" fill="#72665A" transform="matrix(1.00, 0.00, -0.00, -1.00, 382.9, 74.0)">u</text><text xml:space="preserve" font-family="Baskerville" font-size="30.4" fill="#72665A" transform="matrix(1.00, 0.00, -0.00, -1.00, 398.7, 74.0)"> </text><text xml:space="preserve" font-family="Baskerville" font-size="30.4" fill="#72665A" transform="matrix(1.00, 0.00, -0.00, -1.00, 406.3, 74.0)">c</text><text xml:space="preserve" font-family="Baskerville" font-size="30.4" fill="#72665A" transform="matrix(1.00, 0.00, -0.00, -1.00, 419.3, 74.0)">ầ</text><text xml:space="preserve" font-family="Baskerville" font-size="30.4" fill="#72665A" transform="matrix(1.00, 0.00, -0.00, -1.00, 433.5, 74.0)">u</text><text xml:space="preserve" font-family="Baskerville" font-size="30.4" fill="#72665A" transform="matrix(1.00, 0.00, -0.00, -1.00, 449.4, 74.0)"> </text><text xml:space="preserve" font-family="Baskerville" font-size="30.4" fill="#72665A" transform="matrix(1.00, 0.00, -0.00, -1.00, 457.0, 74.0)">n</text><text xml:space="preserve" font-family="Baskerville" font-size="30.4" fill="#72665A" transform="matrix(1.00, 0.00, -0.00, -1.00, 473.1, 74.0)">h</text><text xml:space="preserve" font-family="Baskerville" font-size="30.4" fill="#72665A" transform="matrix(1.00, 0.00, -0.00, -1.00, 489.3, 74.0)">i</text><text xml:space="preserve" font-family="Baskerville" font-size="30.4" fill="#72665A" transform="matrix(1.00, 0.00, -0.00, -1.00, 496.9, 74.0)">ề</text><text xml:space="preserve" font-family="Baskerville" font-size="30.4" fill="#72665A" transform="matrix(1.00, 0.00, -0.00, -1.00, 510.2, 74.0)">u</text><text xml:space="preserve" font-family="Baskerville" font-size="30.4" fill="#72665A" transform="matrix(1.00, 0.00, -0.00, -1.00, 526.0, 74.0)"> </text><text xml:space="preserve" font-family="Baskerville" font-size="30.4" fill="#72665A" transform="matrix(1.00, 0.00, -0.00, -1.00, 533.6, 74.0)">k</text><text xml:space="preserve" font-family="Baskerville" font-size="30.4" fill="#72665A" transform="matrix(1.00, 0.00, -0.00, -1.00, 547.6, 74.0)">h</text><text xml:space="preserve" font-family="Baskerville" font-size="30.4" fill="#72665A" transform="matrix(1.00, 0.00, -0.00, -1.00, 563.7, 74.0)">á</text><text xml:space="preserve" font-family="Baskerville" font-size="30.4" fill="#72665A" transform="matrix(1.00, 0.00, -0.00, -1.00, 578.0, 74.0)">c</text><text xml:space="preserve" font-family="Baskerville" font-size="30.4" fill="#72665A" transform="matrix(1.00, 0.00, -0.00, -1.00, 591.0, 74.0)"> </text><text xml:space="preserve" font-family="Baskerville" font-size="30.4" fill="#72665A" transform="matrix(1.00, 0.00, -0.00, -1.00, 598.6, 74.0)">b</text><text xml:space="preserve" font-family="Baskerville" font-size="30.4" fill="#72665A" transform="matrix(1.00, 0.00, -0.00, -1.00, 614.4, 74.0)">i</text><text xml:space="preserve" font-family="Baskerville" font-size="30.4" fill="#72665A" transform="matrix(1.00, 0.00, -0.00, -1.00, 622.0, 74.0)">ệ</text><text xml:space="preserve" font-family="Baskerville" font-size="30.4" fill="#72665A" transform="matrix(1.00, 0.00, -0.00, -1.00, 635.3, 74.0)">t</text></g></svg>