<?xml version="1.0" encoding="UTF-8" standalone="no"?><svg xmlns="http://www.w3.org/2000/svg" xmlns:xlink="http://www.w3.org/1999/xlink" clip-rule="evenodd" stroke-miterlimit="4.00" viewBox="0 0 1024 768"><desc>SVG generated by Keynote</desc><defs></defs><g transform="matrix(1.00, 0.00, -0.00, -1.00, 0.0, 768.0)"><g><clipPath id="clip-0"><path d="M 0.0 768.0 L 1024.0 768.0 L 1024.0 0.0 L 0.0 0.0 Z M 0.0 768.0 "></path></clipPath><g clip-path="url(#clip-0)"><image xlink:href="7CC131CA911FD3B065AEB53339D3EF13.jpeg" width="1024.00" height="768.00" transform="matrix(1.00, 0.00, -0.00, -1.00, 0.0, 768.0)"></image></g></g><image xlink:href="72D899C29B0CABFF5B9F1772CE55A20E.png" width="734.00" height="71.00" transform="matrix(1.00, 0.00, -0.00, -1.00, 158.0, 488.0)"></image><text xml:space="preserve" font-family="Cochin" font-size="58.0" fill="#EAEAEA" transform="matrix(1.00, 0.00, -0.00, -1.00, 160.0, 432.0)">X</text><text xml:space="preserve" font-family="Cochin" font-size="58.0" fill="#EAEAEA" transform="matrix(1.00, 0.00, -0.00, -1.00, 205.3, 432.0)">U</text><text xml:space="preserve" font-family="Cochin" font-size="58.0" fill="#EAEAEA" transform="matrix(1.00, 0.00, -0.00, -1.00, 253.8, 432.0)"> </text><text xml:space="preserve" font-family="Cochin" font-size="58.0" fill="#EAEAEA" transform="matrix(1.00, 0.00, -0.00, -1.00, 270.6, 432.0)">H</text><text xml:space="preserve" font-family="Cochin" font-size="58.0" fill="#EAEAEA" transform="matrix(1.00, 0.00, -0.00, -1.00, 321.2, 432.0)">Ư</text><text xml:space="preserve" font-family="Cochin" font-size="58.0" fill="#EAEAEA" transform="matrix(1.00, 0.00, -0.00, -1.00, 374.8, 432.0)">Ớ</text><text xml:space="preserve" font-family="Cochin" font-size="58.0" fill="#EAEAEA" transform="matrix(1.00, 0.00, -0.00, -1.00, 428.0, 432.0)">N</text><text xml:space="preserve" font-family="Cochin" font-size="58.0" fill="#EAEAEA" transform="matrix(1.00, 0.00, -0.00, -1.00, 477.6, 432.0)">G</text><text xml:space="preserve" font-family="Cochin" font-size="58.0" fill="#EAEAEA" transform="matrix(1.00, 0.00, -0.00, -1.00, 525.1, 432.0)"> </text><text xml:space="preserve" font-family="Cochin" font-size="58.0" fill="#EAEAEA" transform="matrix(1.00, 0.00, -0.00, -1.00, 541.9, 432.0)">X</text><text xml:space="preserve" font-family="Cochin" font-size="58.0" fill="#EAEAEA" transform="matrix(1.00, 0.00, -0.00, -1.00, 587.2, 432.0)">Â</text><text xml:space="preserve" font-family="Cochin" font-size="58.0" fill="#EAEAEA" transform="matrix(1.00, 0.00, -0.00, -1.00, 630.3, 432.0)">Y</text><text xml:space="preserve" font-family="Cochin" font-size="58.0" fill="#EAEAEA" transform="matrix(1.00, 0.00, -0.00, -1.00, 674.5, 432.0)"> </text><text xml:space="preserve" font-family="Cochin" font-size="58.0" fill="#EAEAEA" transform="matrix(1.00, 0.00, -0.00, -1.00, 691.3, 432.0)">D</text><text xml:space="preserve" font-family="Cochin" font-size="58.0" fill="#EAEAEA" transform="matrix(1.00, 0.00, -0.00, -1.00, 742.0, 432.0)">Ự</text><text xml:space="preserve" font-family="Cochin" font-size="58.0" fill="#EAEAEA" transform="matrix(1.00, 0.00, -0.00, -1.00, 795.5, 432.0)">N</text><text xml:space="preserve" font-family="Cochin" font-size="58.0" fill="#EAEAEA" transform="matrix(1.00, 0.00, -0.00, -1.00, 845.1, 432.0)">G</text><text xml:space="preserve" font-family="Cochin" font-size="58.0" fill="#EAEAEA" transform="matrix(1.00, 0.00, -0.00, -1.00, 892.5, 432.0)"> </text><image xlink:href="B1007151F1F7911DA9C70CA3055DD5DE.png" width="442.00" height="58.00" transform="matrix(1.00, 0.00, -0.00, -1.00, 303.0, 420.0)"></image><text xml:space="preserve" font-family="Cochin" font-size="58.0" fill="#EAEAEA" transform="matrix(1.00, 0.00, -0.00, -1.00, 306.0, 364.0)">W</text><text xml:space="preserve" font-family="Cochin" font-size="58.0" fill="#EAEAEA" transform="matrix(1.00, 0.00, -0.00, -1.00, 366.3, 364.0)">E</text><text xml:space="preserve" font-family="Cochin" font-size="58.0" fill="#EAEAEA" transform="matrix(1.00, 0.00, -0.00, -1.00, 408.4, 364.0)">B</text><text xml:space="preserve" font-family="Cochin" font-size="58.0" fill="#EAEAEA" transform="matrix(1.00, 0.00, -0.00, -1.00, 450.4, 364.0)">S</text><text xml:space="preserve" font-family="Cochin" font-size="58.0" fill="#EAEAEA" transform="matrix(1.00, 0.00, -0.00, -1.00, 487.1, 364.0)">I</text><text xml:space="preserve" font-family="Cochin" font-size="58.0" fill="#EAEAEA" transform="matrix(1.00, 0.00, -0.00, -1.00, 512.0, 364.0)">T</text><text xml:space="preserve" font-family="Cochin" font-size="58.0" fill="#EAEAEA" transform="matrix(1.00, 0.00, -0.00, -1.00, 551.9, 364.0)">E</text><text xml:space="preserve" font-family="Cochin" font-size="58.0" fill="#EAEAEA" transform="matrix(1.00, 0.00, -0.00, -1.00, 594.0, 364.0)"> </text><text xml:space="preserve" font-family="Cochin" font-size="58.0" fill="#EAEAEA" transform="matrix(1.00, 0.00, -0.00, -1.00, 610.8, 364.0)">M</text><text xml:space="preserve" font-family="Cochin" font-size="58.0" fill="#EAEAEA" transform="matrix(1.00, 0.00, -0.00, -1.00, 669.0, 364.0)">Ớ</text><text xml:space="preserve" font-family="Cochin" font-size="58.0" fill="#EAEAEA" transform="matrix(1.00, 0.00, -0.00, -1.00, 722.2, 364.0)">I</text><image xlink:href="04FA0D5AEE558C334552713FFAB53B36.png" width="361.00" height="42.00" transform="matrix(1.00, 0.00, -0.00, -1.00, 344.0, 344.0)"></image><text xml:space="preserve" font-family="Cochin" font-size="36.0" fill="#FEFFFE" transform="matrix(1.00, 0.00, -0.00, -1.00, 345.0, 311.0)">T</text><text xml:space="preserve" font-family="Cochin" font-size="36.0" fill="#FEFFFE" transform="matrix(1.00, 0.00, -0.00, -1.00, 367.1, 311.0)">r</text><text xml:space="preserve" font-family="Cochin" font-size="36.0" fill="#FEFFFE" transform="matrix(1.00, 0.00, -0.00, -1.00, 382.5, 311.0)">ị</text><text xml:space="preserve" font-family="Cochin" font-size="36.0" fill="#FEFFFE" transform="matrix(1.00, 0.00, -0.00, -1.00, 393.3, 311.0)">n</text><text xml:space="preserve" font-family="Cochin" font-size="36.0" fill="#FEFFFE" transform="matrix(1.00, 0.00, -0.00, -1.00, 414.1, 311.0)">h</text><text xml:space="preserve" font-family="Cochin" font-size="36.0" fill="#FEFFFE" transform="matrix(1.00, 0.00, -0.00, -1.00, 434.9, 311.0)"> </text><text xml:space="preserve" font-family="Cochin" font-size="36.0" fill="#FEFFFE" transform="matrix(1.00, 0.00, -0.00, -1.00, 445.3, 311.0)">N</text><text xml:space="preserve" font-family="Cochin" font-size="36.0" fill="#FEFFFE" transform="matrix(1.00, 0.00, -0.00, -1.00, 476.1, 311.0)">g</text><text xml:space="preserve" font-family="Cochin" font-size="36.0" fill="#FEFFFE" transform="matrix(1.00, 0.00, -0.00, -1.00, 495.5, 311.0)">ọ</text><text xml:space="preserve" font-family="Cochin" font-size="36.0" fill="#FEFFFE" transform="matrix(1.00, 0.00, -0.00, -1.00, 515.0, 311.0)">c</text><text xml:space="preserve" font-family="Cochin" font-size="36.0" fill="#FEFFFE" transform="matrix(1.00, 0.00, -0.00, -1.00, 532.4, 311.0)"> </text><text xml:space="preserve" font-family="Cochin" font-size="36.0" fill="#FEFFFE" transform="matrix(1.00, 0.00, -0.00, -1.00, 542.8, 311.0)">Q</text><text xml:space="preserve" font-family="Cochin" font-size="36.0" fill="#FEFFFE" transform="matrix(1.00, 0.00, -0.00, -1.00, 574.2, 311.0)">u</text><text xml:space="preserve" font-family="Cochin" font-size="36.0" fill="#FEFFFE" transform="matrix(1.00, 0.00, -0.00, -1.00, 595.0, 311.0)">ố</text><text xml:space="preserve" font-family="Cochin" font-size="36.0" fill="#FEFFFE" transform="matrix(1.00, 0.00, -0.00, -1.00, 614.5, 311.0)">c</text><text xml:space="preserve" font-family="Cochin" font-size="36.0" fill="#FEFFFE" transform="matrix(1.00, 0.00, -0.00, -1.00, 631.9, 311.0)"> </text><text xml:space="preserve" font-family="Cochin" font-size="36.0" fill="#FEFFFE" transform="matrix(1.00, 0.00, -0.00, -1.00, 642.3, 311.0)">B</text><text xml:space="preserve" font-family="Cochin" font-size="36.0" fill="#FEFFFE" transform="matrix(1.00, 0.00, -0.00, -1.00, 668.4, 311.0)">ả</text><text xml:space="preserve" font-family="Cochin" font-size="36.0" fill="#FEFFFE" transform="matrix(1.00, 0.00, -0.00, -1.00, 686.5, 311.0)">o</text></g></svg>